  0
SECTION
  2
HEADER
  9
$ACADVER
  1
AC1009
  9
$EXTMIN
 10
0.0
 20
0.0
 30
0.0
  9
$EXTMAX
 10
1000.0
 20
1000.0
 30
0.0
  9
$FILLMODE
 70
 0
  9
$SPLFRAME
 70
 1
  0
ENDSEC
  0
SECTION
  2
TABLES
  0
TABLE
  2
LAYER
 70
1
  0
LAYER
  2
0
 70
     0
 62
     7
  6
CONTINUOUS
  0
ENDTAB
  0
ENDSEC
  0
SECTION
  2
ENTITIES
  0
LINE
  8
0
 62
     62
 10
0
 20
46.4813
 30
0.0
 11
0.00964629
 21
40.2181
 31
0.0
  0
LINE
  8
0
 62
     62
 10
0.00964629
 20
40.2181
 30
0.0
 11
1.23886
 21
40.283
 31
0.0
  0
LINE
  8
0
 62
     62
 10
1.23886
 20
40.283
 30
0.0
 11
6.95635
 21
39.8748
 31
0.0
  0
LINE
  8
0
 62
     62
 10
6.95635
 20
39.8748
 30
0.0
 11
12.0964
 21
38.4637
 31
0.0
  0
LINE
  8
0
 62
     62
 10
12.0964
 20
38.4637
 30
0.0
 11
16.6012
 21
36.376
 31
0.0
  0
LINE
  8
0
 62
     62
 10
16.6012
 20
36.376
 30
0.0
 11
20.4143
 21
33.9369
 31
0.0
  0
LINE
  8
0
 62
     62
 10
20.4143
 20
33.9369
 30
0.0
 11
23.4776
 21
31.473
 31
0.0
  0
LINE
  8
0
 62
     62
 10
23.4776
 20
31.473
 30
0.0
 11
25.7376
 21
29.3081
 31
0.0
  0
LINE
  8
0
 62
     62
 10
25.7376
 20
29.3081
 30
0.0
 11
27.1336
 21
27.7716
 31
0.0
  0
LINE
  8
0
 62
     62
 10
27.1336
 20
27.7716
 30
0.0
 11
27.6131
 21
27.1859
 31
0.0
  0
LINE
  8
0
 62
     62
 10
27.6131
 20
27.1859
 30
0.0
 11
27.0743
 21
26.5617
 31
0.0
  0
LINE
  8
0
 62
     62
 10
27.0743
 20
26.5617
 30
0.0
 11
25.5502
 21
24.9163
 31
0.0
  0
LINE
  8
0
 62
     62
 10
25.5502
 20
24.9163
 30
0.0
 11
23.1745
 21
22.5888
 31
0.0
  0
LINE
  8
0
 62
     62
 10
23.1745
 20
22.5888
 30
0.0
 11
20.0808
 21
19.9209
 31
0.0
  0
LINE
  8
0
 62
     62
 10
20.0808
 20
19.9209
 30
0.0
 11
16.4042
 21
17.2544
 31
0.0
  0
LINE
  8
0
 62
     62
 10
16.4042
 20
17.2544
 30
0.0
 11
12.2769
 21
14.9269
 31
0.0
  0
LINE
  8
0
 62
     62
 10
12.2769
 20
14.9269
 30
0.0
 11
7.83414
 21
13.2815
 31
0.0
  0
LINE
  8
0
 62
     62
 10
7.83414
 20
13.2815
 30
0.0
 11
3.21221
 21
12.6559
 31
0.0
  0
LINE
  8
0
 62
     62
 10
3.21221
 20
12.6559
 30
0.0
 11
0.00413413
 21
12.937
 31
0.0
  0
LINE
  8
0
 62
     62
 10
0.00413413
 20
12.937
 30
0.0
 11
0
 21
9.06198
 31
0.0
  0
LINE
  8
0
 62
     62
 10
0
 20
9.06198
 30
0.0
 11
2.67615
 21
8.88834
 31
0.0
  0
LINE
  8
0
 62
     62
 10
2.67615
 20
8.88834
 30
0.0
 11
6.87504
 21
9.15705
 31
0.0
  0
LINE
  8
0
 62
     62
 10
6.87504
 20
9.15705
 30
0.0
 11
10.8093
 21
9.92325
 31
0.0
  0
LINE
  8
0
 62
     62
 10
10.8093
 20
9.92325
 30
0.0
 11
14.5107
 21
11.1304
 31
0.0
  0
LINE
  8
0
 62
     62
 10
14.5107
 20
11.1304
 30
0.0
 11
18.0165
 21
12.7234
 31
0.0
  0
LINE
  8
0
 62
     62
 10
18.0165
 20
12.7234
 30
0.0
 11
21.3582
 21
14.6444
 31
0.0
  0
LINE
  8
0
 62
     62
 10
21.3582
 20
14.6444
 30
0.0
 11
24.5718
 21
16.8369
 31
0.0
  0
LINE
  8
0
 62
     62
 10
24.5718
 20
16.8369
 30
0.0
 11
27.6917
 21
19.2443
 31
0.0
  0
LINE
  8
0
 62
     62
 10
27.6917
 20
19.2443
 30
0.0
 11
30.7523
 21
21.8088
 31
0.0
  0
LINE
  8
0
 62
     62
 10
30.7523
 20
21.8088
 30
0.0
 11
32.4073
 21
20.7588
 31
0.0
  0
LINE
  8
0
 62
     62
 10
32.4073
 20
20.7588
 30
0.0
 11
34.823
 21
19.4124
 31
0.0
  0
LINE
  8
0
 62
     62
 10
34.823
 20
19.4124
 30
0.0
 11
37.2001
 21
18.0537
 31
0.0
  0
LINE
  8
0
 62
     62
 10
37.2001
 20
18.0537
 30
0.0
 11
38.7368
 21
16.9636
 31
0.0
  0
LINE
  8
0
 62
     62
 10
38.7368
 20
16.9636
 30
0.0
 11
35.3977
 21
14.6086
 31
0.0
  0
LINE
  8
0
 62
     62
 10
35.3977
 20
14.6086
 30
0.0
 11
31.309
 21
12.4161
 31
0.0
  0
LINE
  8
0
 62
     62
 10
31.309
 20
12.4161
 30
0.0
 11
26.6816
 21
10.4345
 31
0.0
  0
LINE
  8
0
 62
     62
 10
26.6816
 20
10.4345
 30
0.0
 11
21.7261
 21
8.7092
 31
0.0
  0
LINE
  8
0
 62
     62
 10
21.7261
 20
8.7092
 30
0.0
 11
16.655
 21
7.28567
 31
0.0
  0
LINE
  8
0
 62
     62
 10
16.655
 20
7.28567
 30
0.0
 11
11.6789
 21
6.2122
 31
0.0
  0
LINE
  8
0
 62
     62
 10
11.6789
 20
6.2122
 30
0.0
 11
7.00871
 21
5.5342
 31
0.0
  0
LINE
  8
0
 62
     62
 10
7.00871
 20
5.5342
 30
0.0
 11
2.85805
 21
5.29717
 31
0.0
  0
LINE
  8
0
 62
     62
 10
2.85805
 20
5.29717
 30
0.0
 11
0.00413413
 21
5.44601
 31
0.0
  0
LINE
  8
0
 62
     62
 10
0.00413413
 20
5.44601
 30
0.0
 11
0
 21
0
 31
0.0
  0
LINE
  8
0
 62
     62
 10
0
 20
0
 30
0.0
 11
44.0351
 21
0
 31
0.0
  0
LINE
  8
0
 62
     62
 10
44.0351
 20
0
 30
0.0
 11
44.0351
 21
46.4813
 31
0.0
  0
LINE
  8
0
 62
     62
 10
44.0351
 20
46.4813
 30
0.0
 11
0
 21
46.4813
 31
0.0
  0
LINE
  8
0
 62
     62
 10
0.00689021
 20
32.614
 30
0.0
 11
0.00689021
 21
36.806
 31
0.0
  0
LINE
  8
0
 62
     62
 10
0.00689021
 20
36.806
 30
0.0
 11
1.23886
 21
36.8748
 31
0.0
  0
LINE
  8
0
 62
     62
 10
1.23886
 20
36.8748
 30
0.0
 11
5.35231
 21
36.5552
 31
0.0
  0
LINE
  8
0
 62
     62
 10
5.35231
 20
36.5552
 30
0.0
 11
9.05372
 21
35.4859
 31
0.0
  0
LINE
  8
0
 62
     62
 10
9.05372
 20
35.4859
 30
0.0
 11
12.3017
 21
33.9121
 31
0.0
  0
LINE
  8
0
 62
     62
 10
12.3017
 20
33.9121
 30
0.0
 11
15.0523
 21
32.0766
 31
0.0
  0
LINE
  8
0
 62
     62
 10
15.0523
 20
32.0766
 30
0.0
 11
17.2654
 21
30.2245
 31
0.0
  0
LINE
  8
0
 62
     62
 10
17.2654
 20
30.2245
 30
0.0
 11
18.8984
 21
28.5998
 31
0.0
  0
LINE
  8
0
 62
     62
 10
18.8984
 20
28.5998
 30
0.0
 11
19.9085
 21
27.4464
 31
0.0
  0
LINE
  8
0
 62
     62
 10
19.9085
 20
27.4464
 30
0.0
 11
20.2558
 21
27.0068
 31
0.0
  0
LINE
  8
0
 62
     62
 10
20.2558
 20
27.0068
 30
0.0
 11
19.8878
 21
26.5217
 31
0.0
  0
LINE
  8
0
 62
     62
 10
19.8878
 20
26.5217
 30
0.0
 11
18.8474
 21
25.2415
 31
0.0
  0
LINE
  8
0
 62
     62
 10
18.8474
 20
25.2415
 30
0.0
 11
17.22
 21
23.4322
 31
0.0
  0
LINE
  8
0
 62
     62
 10
17.22
 20
23.4322
 30
0.0
 11
15.0964
 21
21.3568
 31
0.0
  0
LINE
  8
0
 62
     62
 10
15.0964
 20
21.3568
 30
0.0
 11
12.5622
 21
19.2815
 31
0.0
  0
LINE
  8
0
 62
     62
 10
12.5622
 20
19.2815
 30
0.0
 11
9.70827
 21
17.4721
 31
0.0
  0
LINE
  8
0
 62
     62
 10
9.70827
 20
17.4721
 30
0.0
 11
6.62284
 21
16.1919
 31
0.0
  0
LINE
  8
0
 62
     62
 10
6.62284
 20
16.1919
 30
0.0
 11
3.39411
 21
15.7055
 31
0.0
  0
LINE
  8
0
 62
     62
 10
3.39411
 20
15.7055
 30
0.0
 11
1.61093
 21
15.8516
 31
0.0
  0
LINE
  8
0
 62
     62
 10
1.61093
 20
15.8516
 30
0.0
 11
0.00964629
 21
16.2526
 31
0.0
  0
LINE
  8
0
 62
     62
 10
0.00964629
 20
16.2526
 30
0.0
 11
0.0151584
 21
28.9677
 31
0.0
  0
LINE
  8
0
 62
     62
 10
0.0151584
 20
28.9677
 30
0.0
 11
2.7795
 21
28.2801
 31
0.0
  0
LINE
  8
0
 62
     62
 10
2.7795
 20
28.2801
 30
0.0
 11
4.70461
 21
26.9544
 31
0.0
  0
LINE
  8
0
 62
     62
 10
4.70461
 20
26.9544
 30
0.0
 11
6.2949
 21
24.8915
 31
0.0
  0
LINE
  8
0
 62
     62
 10
6.2949
 20
24.8915
 30
0.0
 11
8.05737
 21
21.9852
 31
0.0
  0
LINE
  8
0
 62
     62
 10
8.05737
 20
21.9852
 30
0.0
 11
14.0353
 21
27.0247
 31
0.0
  0
LINE
  8
0
 62
     62
 10
14.0353
 20
27.0247
 30
0.0
 11
13.8327
 21
27.2714
 31
0.0
  0
LINE
  8
0
 62
     62
 10
13.8327
 20
27.2714
 30
0.0
 11
13.2374
 21
27.919
 31
0.0
  0
LINE
  8
0
 62
     62
 10
13.2374
 20
27.919
 30
0.0
 11
12.2659
 21
28.8368
 31
0.0
  0
LINE
  8
0
 62
     62
 10
12.2659
 20
28.8368
 30
0.0
 11
10.9334
 21
29.8869
 31
0.0
  0
LINE
  8
0
 62
     62
 10
10.9334
 20
29.8869
 30
0.0
 11
9.25629
 21
30.937
 31
0.0
  0
LINE
  8
0
 62
     62
 10
9.25629
 20
30.937
 30
0.0
 11
7.24987
 21
31.8547
 31
0.0
  0
LINE
  8
0
 62
     62
 10
7.24987
 20
31.8547
 30
0.0
 11
4.93063
 21
32.5024
 31
0.0
  0
LINE
  8
0
 62
     62
 10
4.93063
 20
32.5024
 30
0.0
 11
2.31648
 21
32.7477
 31
0.0
  0
ENDSEC
  0
EOF
