<?xml version="1.0" encoding="UTF-8" standalone="no"?>
<!-- Generator: Adobe Illustrator 16.0.0, SVG Export Plug-In . SVG Version: 6.00 Build 0)  -->

<svg
   xmlns:dc="http://purl.org/dc/elements/1.1/"
   xmlns:cc="http://creativecommons.org/ns#"
   xmlns:rdf="http://www.w3.org/1999/02/22-rdf-syntax-ns#"
   xmlns:svg="http://www.w3.org/2000/svg"
   xmlns="http://www.w3.org/2000/svg"
   xmlns:sodipodi="http://sodipodi.sourceforge.net/DTD/sodipodi-0.dtd"
   xmlns:inkscape="http://www.inkscape.org/namespaces/inkscape"
   version="1.1"
   id="svg2"
   x="0px"
   y="0px"
   width="99.389824mm"
   height="73.234879mm"
   viewBox="35.188 31.512 352.16868 259.49365"
   enable-background="new 35.188 31.512 351.46 258.785"
   xml:space="preserve"
   inkscape:version="0.91 r13725"
   sodipodi:docname="Nvidia_logo.svg"><metadata
     id="metadata11"><rdf:RDF><cc:Work
         rdf:about=""><dc:format>image/svg+xml</dc:format><dc:type
           rdf:resource="http://purl.org/dc/dcmitype/StillImage" /><dc:title>generated by pstoedit version:3.44 from NVBadge_2D.eps</dc:title></cc:Work></rdf:RDF></metadata><defs
     id="defs9" /><sodipodi:namedview
     pagecolor="#ffffff"
     bordercolor="#666666"
     borderopacity="1"
     objecttolerance="10"
     gridtolerance="10"
     guidetolerance="10"
     inkscape:pageopacity="0"
     inkscape:pageshadow="2"
     inkscape:window-width="1855"
     inkscape:window-height="1056"
     id="namedview7"
     showgrid="false"
     units="mm"
     fit-margin-left="0.1"
     fit-margin-top="0.1"
     fit-margin-right="0.1"
     fit-margin-bottom="0.1"
     inkscape:zoom="2.8284271"
     inkscape:cx="220.13059"
     inkscape:cy="87.184051"
     inkscape:window-x="65"
     inkscape:window-y="24"
     inkscape:window-maximized="1"
     inkscape:current-layer="svg2"
     inkscape:snap-global="true" /><title
     id="title4">generated by pstoedit version:3.44 from NVBadge_2D.eps</title><path
     id="path17"
     d="m 384.54933,282.46333 c 0,3.771 -2.769,6.302 -6.047,6.302 l 0,-0.023 c -3.371,0.023 -6.089,-2.508 -6.089,-6.278 0,-3.769 2.718,-6.293 6.089,-6.293 3.279,-0.001 6.047,2.523 6.047,6.292 z m 2.453,0 c 0,-5.175 -4.02,-8.179 -8.5,-8.179 -4.511,0 -8.531,3.004 -8.531,8.179 0,5.172 4.021,8.188 8.531,8.188 4.481,0 8.5,-3.016 8.5,-8.188 m -9.91,0.692 0.91,0 2.109,3.703 2.316,0 -2.336,-3.859 c 1.207,-0.086 2.2,-0.661 2.2,-2.286 0,-2.019 -1.392,-2.668 -3.75,-2.668 l -3.411,0 0,8.813 1.961,0 0,-3.703 m 10e-4,-1.492 0,-2.122 1.364,0 c 0.742,0 1.753,0.06 1.753,0.965 0,0.985 -0.523,1.157 -1.398,1.157 l -1.719,0"
     inkscape:connector-curvature="0" /><path
     id="path19"
     d="m 329.76033,237.38133 10.598,28.993 -21.524,0 10.926,-28.993 z m -11.35,-11.289 -24.423,61.88 17.246,0 3.863,-10.934 28.903,0 3.656,10.934 18.722,0 -24.605,-61.888 -23.362,0.008 z m -49.033,61.903 17.497,0 0,-61.922 -17.5,-0.004 0.003,61.926 z m -121.467,-61.926 -14.598,49.078 -13.984,-49.074 -18.879,-0.004 19.972,61.926 25.207,0 20.133,-61.926 -17.851,0 z m 70.725,13.484 7.52,0 c 10.91,0 17.966,4.898 17.966,17.609 0,12.714 -7.056,17.613 -17.966,17.613 l -7.52,0 0,-35.222 z m -17.35,-13.484 0,61.926 28.366,0 c 15.113,0 20.048,-2.512 25.384,-8.148 3.769,-3.957 6.207,-12.641 6.207,-22.134 0,-8.707 -2.063,-16.468 -5.66,-21.304 -6.481,-8.649 -15.817,-10.34 -29.75,-10.34 l -24.547,0 z m -165.743,-0.086 0,62.012 17.645,0 0,-47.086 13.672,0.004 c 4.527,0 7.754,1.128 9.934,3.457 2.765,2.945 3.894,7.699 3.894,16.395 l 0,27.23 17.098,0 0,-34.262 c 0,-24.453 -15.586,-27.75 -30.836,-27.75 l -31.407,0 z m 137.583,0.086 0.007,61.926 17.489,0 0,-61.926 -17.496,0 z"
     inkscape:connector-curvature="0" /><path
     style="fill:#77b900"
     d="m 82.56533,102.76833 c 0,0 22.50467,-33.203 67.43767,-36.638 l -6.7e-4,-12.046 c -49.769,3.997 -92.867,46.149 -92.867,46.149 0,0 24.41,70.565 92.867,77.026 l 0,-12.804 c -50.237,-6.32 -67.437,-61.687 -67.437,-61.687 z"
     id="path3342"
     inkscape:connector-curvature="0"
     sodipodi:nodetypes="ccccccc" /><path
     style="fill:#77b900"
     d="m 150.00233,138.99133 0,11.726 c -37.968,-6.769 -48.507,-46.237 -48.507,-46.237 0,0 18.23,-20.195 48.507,-23.47 l 0,12.867 c -0.023,0 -0.039,-0.007 -0.058,-0.007 -15.891,-1.907 -28.305,12.938 -28.305,12.938 0,0 6.958,24.991 28.363,32.183"
     id="path3340" /><path
     style="fill:#77b900"
     d="m 150.00233,31.86633 0.0358,22.190656 c 1.461,-0.112 2.88617,-0.179656 4.35517,-0.229656 56.582,-1.907 93.449,46.406 93.449,46.406 0,0 -42.343,51.488 -86.457,51.488 -4.043,0 -7.81561,-0.36719 -11.37061,-0.99719 l -0.0117,13.73119 c 3.04,0.386 6.19133,0.613 9.48033,0.613 41.051,0 70.738,-20.965 99.484,-45.778 4.766,3.817 24.278,13.103 28.289,17.168 -27.332,22.883 -91.01537,41.33681 -127.12837,41.33681 -3.481,0 -6.82333,-0.211 -10.10933,-0.528 l -0.0163,19.29819 156.032,0 0,-164.699 z"
     id="path3338"
     inkscape:connector-curvature="0"
     sodipodi:nodetypes="ccccsccsccsccccc" /><path
     style="fill:#77b900"
     d="m 150.02577,81.002517 1.9e-4,-14.855562 c 1.446,-0.101 2.87956,-0.194625 4.36756,-0.241625 40.688,-1.278 67.382,34.965 67.382,34.965 0,0 -28.832,40.043 -59.746,40.043 -4.449,0 -8.40318,-0.73157 -11.99318,-1.93857 l 0.0221,-45.053236 c 15.84,1.914 18.97109,8.866806 28.49409,24.741806 l 21.18,-17.859 c 0,0 -15.461,-20.277 -41.524,-20.277"
     id="path21"
     inkscape:connector-curvature="0"
     sodipodi:nodetypes="ccccsccccc" /></svg>