  0
SECTION
  2
HEADER
  9
$ACADVER
  1
AC1009
  9
$EXTMIN
 10
0.0
 20
0.0
 30
0.0
  9
$EXTMAX
 10
1000.0
 20
1000.0
 30
0.0
  9
$FILLMODE
 70
 0
  9
$SPLFRAME
 70
 1
  0
ENDSEC
  0
SECTION
  2
TABLES
  0
TABLE
  2
LAYER
 70
1
  0
LAYER
  2
0
 70
     0
 62
     7
  6
CONTINUOUS
  0
ENDTAB
  0
ENDSEC
  0
SECTION
  2
ENTITIES
  0
LINE
  8
0
 62
     0
 10
98.498
 20
2.31097
 30
0.0
 11
98.3601
 21
1.58474
 31
0.0
  0
LINE
  8
0
 62
     0
 10
98.3601
 20
1.58474
 30
0.0
 11
97.9911
 21
1.02251
 31
0.0
  0
LINE
  8
0
 62
     0
 10
97.9911
 20
1.02251
 30
0.0
 11
97.4478
 21
0.661458
 31
0.0
  0
LINE
  8
0
 62
     0
 10
97.4478
 20
0.661458
 30
0.0
 11
96.7906
 21
0.531922
 31
0.0
  0
LINE
  8
0
 62
     0
 10
96.7906
 20
0.531922
 30
0.0
 11
96.7906
 21
0.538812
 31
0.0
  0
LINE
  8
0
 62
     0
 10
96.7906
 20
0.538812
 30
0.0
 11
96.121
 21
0.664214
 31
0.0
  0
LINE
  8
0
 62
     0
 10
96.121
 20
0.664214
 30
0.0
 11
95.5739
 21
1.02388
 31
0.0
  0
LINE
  8
0
 62
     0
 10
95.5739
 20
1.02388
 30
0.0
 11
95.2059
 21
1.58474
 31
0.0
  0
LINE
  8
0
 62
     0
 10
95.2059
 20
1.58474
 30
0.0
 11
95.0722
 21
2.31097
 31
0.0
  0
LINE
  8
0
 62
     0
 10
95.0722
 20
2.31097
 30
0.0
 11
95.2059
 21
3.0372
 31
0.0
  0
LINE
  8
0
 62
     0
 10
95.2059
 20
3.0372
 30
0.0
 11
95.5739
 21
3.59805
 31
0.0
  0
LINE
  8
0
 62
     0
 10
95.5739
 20
3.59805
 30
0.0
 11
96.121
 21
3.95912
 31
0.0
  0
LINE
  8
0
 62
     0
 10
96.121
 20
3.95912
 30
0.0
 11
96.7906
 21
4.08587
 31
0.0
  0
LINE
  8
0
 62
     0
 10
96.7906
 20
4.08587
 30
0.0
 11
97.4478
 21
3.95912
 31
0.0
  0
LINE
  8
0
 62
     0
 10
97.4478
 20
3.95912
 30
0.0
 11
97.9911
 21
3.59805
 31
0.0
  0
LINE
  8
0
 62
     0
 10
97.9911
 20
3.59805
 30
0.0
 11
98.3601
 21
3.03857
 31
0.0
  0
LINE
  8
0
 62
     0
 10
98.3601
 20
3.03857
 30
0.0
 11
98.498
 21
2.31097
 31
0.0
  0
LINE
  8
0
 62
     0
 10
99.1898
 20
2.31097
 30
0.0
 11
98.9926
 21
3.288
 31
0.0
  0
LINE
  8
0
 62
     0
 10
98.9926
 20
3.288
 30
0.0
 11
98.4635
 21
4.01285
 31
0.0
  0
LINE
  8
0
 62
     0
 10
98.4635
 20
4.01285
 30
0.0
 11
97.6986
 21
4.46486
 31
0.0
  0
LINE
  8
0
 62
     0
 10
97.6986
 20
4.46486
 30
0.0
 11
96.7906
 21
4.6192
 31
0.0
  0
LINE
  8
0
 62
     0
 10
96.7906
 20
4.6192
 30
0.0
 11
95.8769
 21
4.46486
 31
0.0
  0
LINE
  8
0
 62
     0
 10
95.8769
 20
4.46486
 30
0.0
 11
95.1096
 21
4.01285
 31
0.0
  0
LINE
  8
0
 62
     0
 10
95.1096
 20
4.01285
 30
0.0
 11
94.5804
 21
3.288
 31
0.0
  0
LINE
  8
0
 62
     0
 10
94.5804
 20
3.288
 30
0.0
 11
94.3832
 21
2.31097
 31
0.0
  0
LINE
  8
0
 62
     0
 10
94.3832
 20
2.31097
 30
0.0
 11
94.5804
 21
1.33532
 31
0.0
  0
LINE
  8
0
 62
     0
 10
94.5804
 20
1.33532
 30
0.0
 11
95.1096
 21
0.609092
 31
0.0
  0
LINE
  8
0
 62
     0
 10
95.1096
 20
0.609092
 30
0.0
 11
95.8769
 21
0.157097
 31
0.0
  0
LINE
  8
0
 62
     0
 10
95.8769
 20
0.157097
 30
0.0
 11
96.7906
 21
0
 31
0.0
  0
LINE
  8
0
 62
     0
 10
96.7906
 20
0
 30
0.0
 11
97.6986
 21
0.157097
 31
0.0
  0
LINE
  8
0
 62
     0
 10
97.6986
 20
0.157097
 30
0.0
 11
98.4635
 21
0.609092
 31
0.0
  0
LINE
  8
0
 62
     0
 10
98.4635
 20
0.609092
 30
0.0
 11
98.9926
 21
1.33532
 31
0.0
  0
LINE
  8
0
 62
     0
 10
98.9926
 20
1.33532
 30
0.0
 11
99.1898
 21
2.31097
 31
0.0
  0
LINE
  8
0
 62
     0
 10
96.3923
 20
2.11529
 30
0.0
 11
96.6502
 21
2.11529
 31
0.0
  0
LINE
  8
0
 62
     0
 10
96.6502
 20
2.11529
 30
0.0
 11
97.2453
 21
1.07074
 31
0.0
  0
LINE
  8
0
 62
     0
 10
97.2453
 20
1.07074
 30
0.0
 11
97.8987
 21
1.07074
 31
0.0
  0
LINE
  8
0
 62
     0
 10
97.8987
 20
1.07074
 30
0.0
 11
97.24
 21
2.15938
 31
0.0
  0
LINE
  8
0
 62
     0
 10
97.24
 20
2.15938
 30
0.0
 11
97.6768
 21
2.31924
 31
0.0
  0
LINE
  8
0
 62
     0
 10
97.6768
 20
2.31924
 30
0.0
 11
97.8599
 21
2.80431
 31
0.0
  0
LINE
  8
0
 62
     0
 10
97.8599
 20
2.80431
 30
0.0
 11
97.5801
 21
3.39549
 31
0.0
  0
LINE
  8
0
 62
     0
 10
97.5801
 20
3.39549
 30
0.0
 11
96.8015
 21
3.55808
 31
0.0
  0
LINE
  8
0
 62
     0
 10
96.8015
 20
3.55808
 30
0.0
 11
95.8398
 21
3.55808
 31
0.0
  0
LINE
  8
0
 62
     0
 10
95.8398
 20
3.55808
 30
0.0
 11
95.8398
 21
1.07074
 31
0.0
  0
LINE
  8
0
 62
     0
 10
95.8398
 20
1.07074
 30
0.0
 11
96.3923
 21
1.07074
 31
0.0
  0
LINE
  8
0
 62
     0
 10
96.3923
 20
1.07074
 30
0.0
 11
96.3923
 21
2.11529
 31
0.0
  0
LINE
  8
0
 62
     0
 10
96.3923
 20
2.53697
 30
0.0
 11
96.3923
 21
3.13504
 31
0.0
  0
LINE
  8
0
 62
     0
 10
96.3923
 20
3.13504
 30
0.0
 11
96.7782
 21
3.13504
 31
0.0
  0
LINE
  8
0
 62
     0
 10
96.7782
 20
3.13504
 30
0.0
 11
97.1035
 21
3.09507
 31
0.0
  0
LINE
  8
0
 62
     0
 10
97.1035
 20
3.09507
 30
0.0
 11
97.2728
 21
2.86356
 31
0.0
  0
LINE
  8
0
 62
     0
 10
97.2728
 20
2.86356
 30
0.0
 11
97.1684
 21
2.59623
 31
0.0
  0
LINE
  8
0
 62
     0
 10
97.1684
 20
2.59623
 30
0.0
 11
96.8774
 21
2.53697
 31
0.0
  0
LINE
  8
0
 62
     0
 10
96.8774
 20
2.53697
 30
0.0
 11
96.3923
 21
2.53697
 31
0.0
  0
LINE
  8
0
 62
     0
 10
83.0351
 20
15.0344
 30
0.0
 11
86.0256
 21
6.85161
 31
0.0
  0
LINE
  8
0
 62
     0
 10
86.0256
 20
6.85161
 30
0.0
 11
79.9511
 21
6.85161
 31
0.0
  0
LINE
  8
0
 62
     0
 10
79.9511
 20
6.85161
 30
0.0
 11
83.0351
 21
15.0344
 31
0.0
  0
LINE
  8
0
 62
     0
 10
79.8311
 20
18.2204
 30
0.0
 11
72.9396
 21
0.755167
 31
0.0
  0
LINE
  8
0
 62
     0
 10
72.9396
 20
0.755167
 30
0.0
 11
77.8069
 21
0.755167
 31
0.0
  0
LINE
  8
0
 62
     0
 10
77.8069
 20
0.755167
 30
0.0
 11
78.897
 21
3.84196
 31
0.0
  0
LINE
  8
0
 62
     0
 10
78.897
 20
3.84196
 30
0.0
 11
87.0536
 21
3.84196
 31
0.0
  0
LINE
  8
0
 62
     0
 10
87.0536
 20
3.84196
 30
0.0
 11
88.0854
 21
0.755167
 31
0.0
  0
LINE
  8
0
 62
     0
 10
88.0854
 20
0.755167
 30
0.0
 11
93.369
 21
0.755167
 31
0.0
  0
LINE
  8
0
 62
     0
 10
93.369
 20
0.755167
 30
0.0
 11
86.4249
 21
18.2218
 31
0.0
  0
LINE
  8
0
 62
     0
 10
86.4249
 20
18.2218
 30
0.0
 11
79.8311
 21
18.2204
 31
0.0
  0
LINE
  8
0
 62
     0
 10
65.9927
 20
0.749653
 30
0.0
 11
70.9316
 21
0.749653
 31
0.0
  0
LINE
  8
0
 62
     0
 10
70.9316
 20
0.749653
 30
0.0
 11
70.9316
 21
18.2246
 31
0.0
  0
LINE
  8
0
 62
     0
 10
70.9316
 20
18.2246
 30
0.0
 11
65.9927
 21
18.2259
 31
0.0
  0
LINE
  8
0
 62
     0
 10
65.9927
 20
18.2259
 30
0.0
 11
65.9927
 21
0.749653
 31
0.0
  0
LINE
  8
0
 62
     0
 10
31.7128
 20
18.2259
 30
0.0
 11
27.5924
 21
4.37526
 31
0.0
  0
LINE
  8
0
 62
     0
 10
27.5924
 20
4.37526
 30
0.0
 11
23.6457
 21
18.2246
 31
0.0
  0
LINE
  8
0
 62
     0
 10
23.6457
 20
18.2246
 30
0.0
 11
18.3183
 21
18.2259
 31
0.0
  0
LINE
  8
0
 62
     0
 10
18.3183
 20
18.2259
 30
0.0
 11
23.9544
 21
0.749653
 31
0.0
  0
LINE
  8
0
 62
     0
 10
23.9544
 20
0.749653
 30
0.0
 11
31.0692
 21
0.749653
 31
0.0
  0
LINE
  8
0
 62
     0
 10
31.0692
 20
0.749653
 30
0.0
 11
36.751
 21
18.2259
 31
0.0
  0
LINE
  8
0
 62
     0
 10
36.751
 20
18.2259
 30
0.0
 11
31.7128
 21
18.2259
 31
0.0
  0
LINE
  8
0
 62
     0
 10
51.6724
 20
14.4212
 30
0.0
 11
53.7958
 21
14.4212
 31
0.0
  0
LINE
  8
0
 62
     0
 10
53.7958
 20
14.4212
 30
0.0
 11
54.8968
 21
14.355
 31
0.0
  0
LINE
  8
0
 62
     0
 10
54.8968
 20
14.355
 30
0.0
 11
55.8863
 21
14.1497
 31
0.0
  0
LINE
  8
0
 62
     0
 10
55.8863
 20
14.1497
 30
0.0
 11
56.7517
 21
13.7956
 31
0.0
  0
LINE
  8
0
 62
     0
 10
56.7517
 20
13.7956
 30
0.0
 11
57.4848
 21
13.2815
 31
0.0
  0
LINE
  8
0
 62
     0
 10
57.4848
 20
13.2815
 30
0.0
 11
58.0718
 21
12.6008
 31
0.0
  0
LINE
  8
0
 62
     0
 10
58.0718
 20
12.6008
 30
0.0
 11
58.5061
 21
11.7423
 31
0.0
  0
LINE
  8
0
 62
     0
 10
58.5061
 20
11.7423
 30
0.0
 11
58.7735
 21
10.695
 31
0.0
  0
LINE
  8
0
 62
     0
 10
58.7735
 20
10.695
 30
0.0
 11
58.8656
 21
9.4506
 31
0.0
  0
LINE
  8
0
 62
     0
 10
58.8656
 20
9.4506
 30
0.0
 11
58.7735
 21
8.20759
 31
0.0
  0
LINE
  8
0
 62
     0
 10
58.7735
 20
8.20759
 30
0.0
 11
58.5061
 21
7.16167
 31
0.0
  0
LINE
  8
0
 62
     0
 10
58.5061
 20
7.16167
 30
0.0
 11
58.0718
 21
6.30178
 31
0.0
  0
LINE
  8
0
 62
     0
 10
58.0718
 20
6.30178
 30
0.0
 11
57.4848
 21
5.62102
 31
0.0
  0
LINE
  8
0
 62
     0
 10
57.4848
 20
5.62102
 30
0.0
 11
56.7517
 21
5.10702
 31
0.0
  0
LINE
  8
0
 62
     0
 10
56.7517
 20
5.10702
 30
0.0
 11
55.8863
 21
4.75287
 31
0.0
  0
LINE
  8
0
 62
     0
 10
55.8863
 20
4.75287
 30
0.0
 11
54.8968
 21
4.54752
 31
0.0
  0
LINE
  8
0
 62
     0
 10
54.8968
 20
4.54752
 30
0.0
 11
53.7958
 21
4.48
 31
0.0
  0
LINE
  8
0
 62
     0
 10
53.7958
 20
4.48
 30
0.0
 11
51.6724
 21
4.48
 31
0.0
  0
LINE
  8
0
 62
     0
 10
51.6724
 20
4.48
 30
0.0
 11
51.6724
 21
14.4212
 31
0.0
  0
LINE
  8
0
 62
     0
 10
46.7762
 20
18.2259
 30
0.0
 11
46.7762
 21
0.749653
 31
0.0
  0
LINE
  8
0
 62
     0
 10
46.7762
 20
0.749653
 30
0.0
 11
54.7825
 21
0.749653
 31
0.0
  0
LINE
  8
0
 62
     0
 10
54.7825
 20
0.749653
 30
0.0
 11
57.489
 21
0.886079
 31
0.0
  0
LINE
  8
0
 62
     0
 10
57.489
 20
0.886079
 30
0.0
 11
59.3975
 21
1.30362
 31
0.0
  0
LINE
  8
0
 62
     0
 10
59.3975
 20
1.30362
 30
0.0
 11
60.7893
 21
2.01883
 31
0.0
  0
LINE
  8
0
 62
     0
 10
60.7893
 20
2.01883
 30
0.0
 11
61.9457
 21
3.04822
 31
0.0
  0
LINE
  8
0
 62
     0
 10
61.9457
 20
3.04822
 30
0.0
 11
62.6678
 21
4.12034
 31
0.0
  0
LINE
  8
0
 62
     0
 10
62.6678
 20
4.12034
 30
0.0
 11
63.2202
 21
5.58655
 31
0.0
  0
LINE
  8
0
 62
     0
 10
63.2202
 20
5.58655
 30
0.0
 11
63.5716
 21
7.34769
 31
0.0
  0
LINE
  8
0
 62
     0
 10
63.5716
 20
7.34769
 30
0.0
 11
63.6972
 21
9.29626
 31
0.0
  0
LINE
  8
0
 62
     0
 10
63.6972
 20
9.29626
 30
0.0
 11
63.2781
 21
12.7124
 31
0.0
  0
LINE
  8
0
 62
     0
 10
63.2781
 20
12.7124
 30
0.0
 11
62.0998
 21
15.3086
 31
0.0
  0
LINE
  8
0
 62
     0
 10
62.0998
 20
15.3086
 30
0.0
 11
60.5688
 21
16.7942
 31
0.0
  0
LINE
  8
0
 62
     0
 10
60.5688
 20
16.7942
 30
0.0
 11
58.6906
 21
17.683
 31
0.0
  0
LINE
  8
0
 62
     0
 10
58.6906
 20
17.683
 30
0.0
 11
56.4169
 21
18.1143
 31
0.0
  0
LINE
  8
0
 62
     0
 10
56.4169
 20
18.1143
 30
0.0
 11
53.7034
 21
18.2259
 31
0.0
  0
LINE
  8
0
 62
     0
 10
53.7034
 20
18.2259
 30
0.0
 11
46.7762
 21
18.2259
 31
0.0
  0
LINE
  8
0
 62
     0
 10
0
 20
18.2507
 30
0.0
 11
0
 21
0.749653
 31
0.0
  0
LINE
  8
0
 62
     0
 10
0
 20
0.749653
 30
0.0
 11
4.98023
 21
0.749653
 31
0.0
  0
LINE
  8
0
 62
     0
 10
4.98023
 20
0.749653
 30
0.0
 11
4.98023
 21
14.0381
 31
0.0
  0
LINE
  8
0
 62
     0
 10
4.98023
 20
14.0381
 30
0.0
 11
8.83874
 21
14.0367
 31
0.0
  0
LINE
  8
0
 62
     0
 10
8.83874
 20
14.0367
 30
0.0
 11
10.4883
 21
13.7956
 31
0.0
  0
LINE
  8
0
 62
     0
 10
10.4883
 20
13.7956
 30
0.0
 11
11.6417
 21
13.061
 31
0.0
  0
LINE
  8
0
 62
     0
 10
11.6417
 20
13.061
 30
0.0
 11
12.1419
 21
12.3334
 31
0.0
  0
LINE
  8
0
 62
     0
 10
12.1419
 20
12.3334
 30
0.0
 11
12.4836
 21
11.3564
 31
0.0
  0
LINE
  8
0
 62
     0
 10
12.4836
 20
11.3564
 30
0.0
 11
12.678
 21
10.0762
 31
0.0
  0
LINE
  8
0
 62
     0
 10
12.678
 20
10.0762
 30
0.0
 11
12.7413
 21
8.43361
 31
0.0
  0
LINE
  8
0
 62
     0
 10
12.7413
 20
8.43361
 30
0.0
 11
12.7413
 21
0.749653
 31
0.0
  0
LINE
  8
0
 62
     0
 10
12.7413
 20
0.749653
 30
0.0
 11
17.5659
 21
0.749653
 31
0.0
  0
LINE
  8
0
 62
     0
 10
17.5659
 20
0.749653
 30
0.0
 11
17.5659
 21
10.4194
 31
0.0
  0
LINE
  8
0
 62
     0
 10
17.5659
 20
10.4194
 30
0.0
 11
17.3674
 21
12.7386
 31
0.0
  0
LINE
  8
0
 62
     0
 10
17.3674
 20
12.7386
 30
0.0
 11
16.8107
 21
14.5548
 31
0.0
  0
LINE
  8
0
 62
     0
 10
16.8107
 20
14.5548
 30
0.0
 11
15.9466
 21
15.9301
 31
0.0
  0
LINE
  8
0
 62
     0
 10
15.9466
 20
15.9301
 30
0.0
 11
14.8277
 21
16.9237
 31
0.0
  0
LINE
  8
0
 62
     0
 10
14.8277
 20
16.9237
 30
0.0
 11
13.5075
 21
17.5934
 31
0.0
  0
LINE
  8
0
 62
     0
 10
13.5075
 20
17.5934
 30
0.0
 11
12.0385
 21
17.9985
 31
0.0
  0
LINE
  8
0
 62
     0
 10
12.0385
 20
17.9985
 30
0.0
 11
10.4717
 21
18.1984
 31
0.0
  0
LINE
  8
0
 62
     0
 10
10.4717
 20
18.1984
 30
0.0
 11
8.86354
 21
18.2507
 31
0.0
  0
LINE
  8
0
 62
     0
 10
8.86354
 20
18.2507
 30
0.0
 11
0
 21
18.2507
 31
0.0
  0
LINE
  8
0
 62
     0
 10
38.8288
 20
18.2259
 30
0.0
 11
38.8303
 21
0.749653
 31
0.0
  0
LINE
  8
0
 62
     0
 10
38.8303
 20
0.749653
 30
0.0
 11
43.7667
 21
0.749653
 31
0.0
  0
LINE
  8
0
 62
     0
 10
43.7667
 20
0.749653
 30
0.0
 11
43.7667
 21
18.2259
 31
0.0
  0
LINE
  8
0
 62
     0
 10
43.7667
 20
18.2259
 30
0.0
 11
38.8288
 21
18.2259
 31
0.0
  0
LINE
  8
0
 62
     62
 10
13.2705
 20
53.0243
 30
0.0
 11
13.5682
 21
53.4293
 31
0.0
  0
LINE
  8
0
 62
     62
 10
13.5682
 20
53.4293
 30
0.0
 11
14.4598
 21
54.5042
 31
0.0
  0
LINE
  8
0
 62
     62
 10
14.4598
 20
54.5042
 30
0.0
 11
15.948
 21
56.0405
 31
0.0
  0
LINE
  8
0
 62
     62
 10
15.948
 20
56.0405
 30
0.0
 11
18.0303
 21
57.8309
 31
0.0
  0
LINE
  8
0
 62
     62
 10
18.0303
 20
57.8309
 30
0.0
 11
20.7078
 21
59.6678
 31
0.0
  0
LINE
  8
0
 62
     62
 10
20.7078
 20
59.6678
 30
0.0
 11
23.9793
 21
61.3406
 31
0.0
  0
LINE
  8
0
 62
     62
 10
23.9793
 20
61.3406
 30
0.0
 11
27.8446
 21
62.6428
 31
0.0
  0
LINE
  8
0
 62
     62
 10
27.8446
 20
62.6428
 30
0.0
 11
32.304
 21
63.3649
 31
0.0
  0
LINE
  8
0
 62
     62
 10
32.304
 20
63.3649
 30
0.0
 11
32.3026
 21
66.7646
 31
0.0
  0
LINE
  8
0
 62
     62
 10
32.3026
 20
66.7646
 30
0.0
 11
27.1432
 21
65.8813
 31
0.0
  0
LINE
  8
0
 62
     62
 10
27.1432
 20
65.8813
 30
0.0
 11
22.2815
 21
64.2539
 31
0.0
  0
LINE
  8
0
 62
     62
 10
22.2815
 20
64.2539
 30
0.0
 11
17.8373
 21
62.1482
 31
0.0
  0
LINE
  8
0
 62
     62
 10
17.8373
 20
62.1482
 30
0.0
 11
13.9306
 21
59.829
 31
0.0
  0
LINE
  8
0
 62
     62
 10
13.9306
 20
59.829
 30
0.0
 11
10.6826
 21
57.5635
 31
0.0
  0
LINE
  8
0
 62
     62
 10
10.6826
 20
57.5635
 30
0.0
 11
8.21313
 21
55.6161
 31
0.0
  0
LINE
  8
0
 62
     62
 10
8.21313
 20
55.6161
 30
0.0
 11
6.64351
 21
54.2533
 31
0.0
  0
LINE
  8
0
 62
     62
 10
6.64351
 20
54.2533
 30
0.0
 11
6.09367
 21
53.7393
 31
0.0
  0
LINE
  8
0
 62
     62
 10
6.09367
 20
53.7393
 30
0.0
 11
6.17499
 21
53.516
 31
0.0
  0
LINE
  8
0
 62
     62
 10
6.17499
 20
53.516
 30
0.0
 11
6.42719
 21
52.8807
 31
0.0
  0
LINE
  8
0
 62
     62
 10
6.42719
 20
52.8807
 30
0.0
 11
6.85574
 21
51.8901
 31
0.0
  0
LINE
  8
0
 62
     62
 10
6.85574
 20
51.8901
 30
0.0
 11
7.47173
 21
50.6003
 31
0.0
  0
LINE
  8
0
 62
     62
 10
7.47173
 20
50.6003
 30
0.0
 11
8.28065
 21
49.065
 31
0.0
  0
LINE
  8
0
 62
     62
 10
8.28065
 20
49.065
 30
0.0
 11
9.2921
 21
47.3424
 31
0.0
  0
LINE
  8
0
 62
     62
 10
9.2921
 20
47.3424
 30
0.0
 11
10.5131
 21
45.4875
 31
0.0
  0
LINE
  8
0
 62
     62
 10
10.5131
 20
45.4875
 30
0.0
 11
11.9531
 21
43.5557
 31
0.0
  0
LINE
  8
0
 62
     62
 10
11.9531
 20
43.5557
 30
0.0
 11
13.6178
 21
41.6017
 31
0.0
  0
LINE
  8
0
 62
     62
 10
13.6178
 20
41.6017
 30
0.0
 11
15.5195
 21
39.6819
 31
0.0
  0
LINE
  8
0
 62
     62
 10
15.5195
 20
39.6819
 30
0.0
 11
17.6623
 21
37.852
 31
0.0
  0
LINE
  8
0
 62
     62
 10
17.6623
 20
37.852
 30
0.0
 11
20.056
 21
36.1678
 31
0.0
  0
LINE
  8
0
 62
     62
 10
20.056
 20
36.1678
 30
0.0
 11
22.7087
 21
34.6852
 31
0.0
  0
LINE
  8
0
 62
     62
 10
22.7087
 20
34.6852
 30
0.0
 11
25.6287
 21
33.4602
 31
0.0
  0
LINE
  8
0
 62
     62
 10
25.6287
 20
33.4602
 30
0.0
 11
28.823
 21
32.5479
 31
0.0
  0
LINE
  8
0
 62
     62
 10
28.823
 20
32.5479
 30
0.0
 11
32.3026
 21
32.0022
 31
0.0
  0
LINE
  8
0
 62
     62
 10
32.3026
 20
32.0022
 30
0.0
 11
32.3026
 21
35.6154
 31
0.0
  0
LINE
  8
0
 62
     62
 10
32.3026
 20
35.6154
 30
0.0
 11
27.4133
 21
36.8762
 31
0.0
  0
LINE
  8
0
 62
     62
 10
27.4133
 20
36.8762
 30
0.0
 11
23.3467
 21
39.0881
 31
0.0
  0
LINE
  8
0
 62
     62
 10
23.3467
 20
39.0881
 30
0.0
 11
20.0504
 21
41.9075
 31
0.0
  0
LINE
  8
0
 62
     62
 10
20.0504
 20
41.9075
 30
0.0
 11
17.4694
 21
44.9887
 31
0.0
  0
LINE
  8
0
 62
     62
 10
17.4694
 20
44.9887
 30
0.0
 11
15.5539
 21
47.9873
 31
0.0
  0
LINE
  8
0
 62
     62
 10
15.5539
 20
47.9873
 30
0.0
 11
14.2503
 21
50.5562
 31
0.0
  0
LINE
  8
0
 62
     62
 10
14.2503
 20
50.5562
 30
0.0
 11
13.5062
 21
52.3505
 31
0.0
  0
LINE
  8
0
 62
     62
 10
13.5062
 20
52.3505
 30
0.0
 11
13.2705
 21
53.0243
 31
0.0
  0
LINE
  8
0
 62
     62
 10
32.3026
 20
42.8018
 30
0.0
 11
32.3026
 21
39.4917
 31
0.0
  0
LINE
  8
0
 62
     62
 10
32.3026
 20
39.4917
 30
0.0
 11
28.637
 21
40.6026
 31
0.0
  0
LINE
  8
0
 62
     62
 10
28.637
 20
40.6026
 30
0.0
 11
25.6425
 21
42.3376
 31
0.0
  0
LINE
  8
0
 62
     62
 10
25.6425
 20
42.3376
 30
0.0
 11
23.2627
 21
44.4609
 31
0.0
  0
LINE
  8
0
 62
     62
 10
23.2627
 20
44.4609
 30
0.0
 11
21.4395
 21
46.7349
 31
0.0
  0
LINE
  8
0
 62
     62
 10
21.4395
 20
46.7349
 30
0.0
 11
20.1194
 21
48.9176
 31
0.0
  0
LINE
  8
0
 62
     62
 10
20.1194
 20
48.9176
 30
0.0
 11
19.2443
 21
50.7725
 31
0.0
  0
LINE
  8
0
 62
     62
 10
19.2443
 20
50.7725
 30
0.0
 11
18.7606
 21
52.0594
 31
0.0
  0
LINE
  8
0
 62
     62
 10
18.7606
 20
52.0594
 30
0.0
 11
18.6132
 21
52.542
 31
0.0
  0
LINE
  8
0
 62
     62
 10
18.6132
 20
52.542
 30
0.0
 11
18.8502
 21
52.79
 31
0.0
  0
LINE
  8
0
 62
     62
 10
18.8502
 20
52.79
 30
0.0
 11
19.5502
 21
53.4472
 31
0.0
  0
LINE
  8
0
 62
     62
 10
19.5502
 20
53.4472
 30
0.0
 11
20.6912
 21
54.3941
 31
0.0
  0
LINE
  8
0
 62
     62
 10
20.6912
 20
54.3941
 30
0.0
 11
22.2539
 21
55.5075
 31
0.0
  0
LINE
  8
0
 62
     62
 10
22.2539
 20
55.5075
 30
0.0
 11
24.2163
 21
56.6635
 31
0.0
  0
LINE
  8
0
 62
     62
 10
24.2163
 20
56.6635
 30
0.0
 11
26.5589
 21
57.7413
 31
0.0
  0
LINE
  8
0
 62
     62
 10
26.5589
 20
57.7413
 30
0.0
 11
29.2613
 21
58.6161
 31
0.0
  0
LINE
  8
0
 62
     62
 10
29.2613
 20
58.6161
 30
0.0
 11
32.3026
 21
59.1647
 31
0.0
  0
LINE
  8
0
 62
     62
 10
32.3026
 20
59.1647
 30
0.0
 11
32.3026
 21
55.5336
 31
0.0
  0
LINE
  8
0
 62
     62
 10
32.3026
 20
55.5336
 30
0.0
 11
32.2874
 21
55.5364
 31
0.0
  0
LINE
  8
0
 62
     62
 10
32.2874
 20
55.5364
 30
0.0
 11
30.6558
 21
55.535
 31
0.0
  0
LINE
  8
0
 62
     62
 10
30.6558
 20
55.535
 30
0.0
 11
29.1469
 21
55.1931
 31
0.0
  0
LINE
  8
0
 62
     62
 10
29.1469
 20
55.1931
 30
0.0
 11
27.7881
 21
54.6171
 31
0.0
  0
LINE
  8
0
 62
     62
 10
27.7881
 20
54.6171
 30
0.0
 11
26.6099
 21
53.9129
 31
0.0
  0
LINE
  8
0
 62
     62
 10
26.6099
 20
53.9129
 30
0.0
 11
25.6425
 21
53.1827
 31
0.0
  0
LINE
  8
0
 62
     62
 10
25.6425
 20
53.1827
 30
0.0
 11
24.9163
 21
52.5307
 31
0.0
  0
LINE
  8
0
 62
     62
 10
24.9163
 20
52.5307
 30
0.0
 11
24.4574
 21
52.0637
 31
0.0
  0
LINE
  8
0
 62
     62
 10
24.4574
 20
52.0637
 30
0.0
 11
24.2989
 21
51.8844
 31
0.0
  0
LINE
  8
0
 62
     62
 10
24.2989
 20
51.8844
 30
0.0
 11
24.394
 21
51.5786
 31
0.0
  0
LINE
  8
0
 62
     62
 10
24.394
 20
51.5786
 30
0.0
 11
24.6999
 21
50.7517
 31
0.0
  0
LINE
  8
0
 62
     62
 10
24.6999
 20
50.7517
 30
0.0
 11
25.2388
 21
49.5459
 31
0.0
  0
LINE
  8
0
 62
     62
 10
25.2388
 20
49.5459
 30
0.0
 11
26.0353
 21
48.1044
 31
0.0
  0
LINE
  8
0
 62
     62
 10
26.0353
 20
48.1044
 30
0.0
 11
27.1157
 21
46.5681
 31
0.0
  0
LINE
  8
0
 62
     62
 10
27.1157
 20
46.5681
 30
0.0
 11
28.5034
 21
45.0783
 31
0.0
  0
LINE
  8
0
 62
     62
 10
28.5034
 20
45.0783
 30
0.0
 11
30.2245
 21
43.7762
 31
0.0
  0
LINE
  8
0
 62
     62
 10
30.2245
 20
43.7762
 30
0.0
 11
32.3026
 21
42.8018
 31
0.0
  0
LINE
  8
0
 62
     62
 10
32.3026
 20
73.0345
 30
0.0
 11
32.3136
 21
66.7713
 31
0.0
  0
LINE
  8
0
 62
     62
 10
32.3136
 20
66.7713
 30
0.0
 11
33.5428
 21
66.8362
 31
0.0
  0
LINE
  8
0
 62
     62
 10
33.5428
 20
66.8362
 30
0.0
 11
39.2603
 21
66.4284
 31
0.0
  0
LINE
  8
0
 62
     62
 10
39.2603
 20
66.4284
 30
0.0
 11
44.4003
 21
65.0173
 31
0.0
  0
LINE
  8
0
 62
     62
 10
44.4003
 20
65.0173
 30
0.0
 11
48.9038
 21
62.9296
 31
0.0
  0
LINE
  8
0
 62
     62
 10
48.9038
 20
62.9296
 30
0.0
 11
52.717
 21
60.4905
 31
0.0
  0
LINE
  8
0
 62
     62
 10
52.717
 20
60.4905
 30
0.0
 11
55.7816
 21
58.0263
 31
0.0
  0
LINE
  8
0
 62
     62
 10
55.7816
 20
58.0263
 30
0.0
 11
58.0401
 21
55.8617
 31
0.0
  0
LINE
  8
0
 62
     62
 10
58.0401
 20
55.8617
 30
0.0
 11
59.436
 21
54.325
 31
0.0
  0
LINE
  8
0
 62
     62
 10
59.436
 20
54.325
 30
0.0
 11
59.9158
 21
53.7393
 31
0.0
  0
LINE
  8
0
 62
     62
 10
59.9158
 20
53.7393
 30
0.0
 11
59.3771
 21
53.1153
 31
0.0
  0
LINE
  8
0
 62
     62
 10
59.3771
 20
53.1153
 30
0.0
 11
57.8527
 21
51.4696
 31
0.0
  0
LINE
  8
0
 62
     62
 10
57.8527
 20
51.4696
 30
0.0
 11
55.4771
 21
49.1423
 31
0.0
  0
LINE
  8
0
 62
     62
 10
55.4771
 20
49.1423
 30
0.0
 11
52.3833
 21
46.4742
 31
0.0
  0
LINE
  8
0
 62
     62
 10
52.3833
 20
46.4742
 30
0.0
 11
48.7066
 21
43.8079
 31
0.0
  0
LINE
  8
0
 62
     62
 10
48.7066
 20
43.8079
 30
0.0
 11
44.5795
 21
41.4803
 31
0.0
  0
LINE
  8
0
 62
     62
 10
44.5795
 20
41.4803
 30
0.0
 11
40.138
 21
39.835
 31
0.0
  0
LINE
  8
0
 62
     62
 10
40.138
 20
39.835
 30
0.0
 11
35.5163
 21
39.2095
 31
0.0
  0
LINE
  8
0
 62
     62
 10
35.5163
 20
39.2095
 30
0.0
 11
32.3067
 21
39.4903
 31
0.0
  0
LINE
  8
0
 62
     62
 10
32.3067
 20
39.4903
 30
0.0
 11
32.304
 21
35.6154
 31
0.0
  0
LINE
  8
0
 62
     62
 10
32.304
 20
35.6154
 30
0.0
 11
34.9787
 21
35.4418
 31
0.0
  0
LINE
  8
0
 62
     62
 10
34.9787
 20
35.4418
 30
0.0
 11
39.1777
 21
35.7106
 31
0.0
  0
LINE
  8
0
 62
     62
 10
39.1777
 20
35.7106
 30
0.0
 11
43.1119
 21
36.4765
 31
0.0
  0
LINE
  8
0
 62
     62
 10
43.1119
 20
36.4765
 30
0.0
 11
46.8133
 21
37.6837
 31
0.0
  0
LINE
  8
0
 62
     62
 10
46.8133
 20
37.6837
 30
0.0
 11
50.3192
 21
39.2769
 31
0.0
  0
LINE
  8
0
 62
     62
 10
50.3192
 20
39.2769
 30
0.0
 11
53.6607
 21
41.1977
 31
0.0
  0
LINE
  8
0
 62
     62
 10
53.6607
 20
41.1977
 30
0.0
 11
56.8745
 21
43.3903
 31
0.0
  0
LINE
  8
0
 62
     62
 10
56.8745
 20
43.3903
 30
0.0
 11
59.9944
 21
45.7976
 31
0.0
  0
LINE
  8
0
 62
     62
 10
59.9944
 20
45.7976
 30
0.0
 11
63.0548
 21
48.3623
 31
0.0
  0
LINE
  8
0
 62
     62
 10
63.0548
 20
48.3623
 30
0.0
 11
64.7114
 21
47.3121
 31
0.0
  0
LINE
  8
0
 62
     62
 10
64.7114
 20
47.3121
 30
0.0
 11
67.1269
 21
45.9659
 31
0.0
  0
LINE
  8
0
 62
     62
 10
67.1269
 20
45.9659
 30
0.0
 11
69.5029
 21
44.607
 31
0.0
  0
LINE
  8
0
 62
     62
 10
69.5029
 20
44.607
 30
0.0
 11
71.0392
 21
43.5169
 31
0.0
  0
LINE
  8
0
 62
     62
 10
71.0392
 20
43.5169
 30
0.0
 11
67.7002
 21
41.1621
 31
0.0
  0
LINE
  8
0
 62
     62
 10
67.7002
 20
41.1621
 30
0.0
 11
63.6115
 21
38.9696
 31
0.0
  0
LINE
  8
0
 62
     62
 10
63.6115
 20
38.9696
 30
0.0
 11
58.9841
 21
36.988
 31
0.0
  0
LINE
  8
0
 62
     62
 10
58.9841
 20
36.988
 30
0.0
 11
54.0286
 21
35.2626
 31
0.0
  0
LINE
  8
0
 62
     62
 10
54.0286
 20
35.2626
 30
0.0
 11
48.9574
 21
33.8391
 31
0.0
  0
LINE
  8
0
 62
     62
 10
48.9574
 20
33.8391
 30
0.0
 11
43.9815
 21
32.7656
 31
0.0
  0
LINE
  8
0
 62
     62
 10
43.9815
 20
32.7656
 30
0.0
 11
39.3114
 21
32.0876
 31
0.0
  0
LINE
  8
0
 62
     62
 10
39.3114
 20
32.0876
 30
0.0
 11
35.1607
 21
31.8506
 31
0.0
  0
LINE
  8
0
 62
     62
 10
35.1607
 20
31.8506
 30
0.0
 11
32.3081
 21
31.9994
 31
0.0
  0
LINE
  8
0
 62
     62
 10
32.3081
 20
31.9994
 30
0.0
 11
32.3026
 21
26.5534
 31
0.0
  0
LINE
  8
0
 62
     62
 10
32.3026
 20
26.5534
 30
0.0
 11
76.3393
 21
26.5534
 31
0.0
  0
LINE
  8
0
 62
     62
 10
76.3393
 20
26.5534
 30
0.0
 11
76.3393
 21
73.0345
 31
0.0
  0
LINE
  8
0
 62
     62
 10
76.3393
 20
73.0345
 30
0.0
 11
32.3026
 21
73.0345
 31
0.0
  0
LINE
  8
0
 62
     62
 10
32.3095
 20
59.1675
 30
0.0
 11
32.3095
 21
63.3596
 31
0.0
  0
LINE
  8
0
 62
     62
 10
32.3095
 20
63.3596
 30
0.0
 11
33.5428
 21
63.4284
 31
0.0
  0
LINE
  8
0
 62
     62
 10
33.5428
 20
63.4284
 30
0.0
 11
37.6562
 21
63.1088
 31
0.0
  0
LINE
  8
0
 62
     62
 10
37.6562
 20
63.1088
 30
0.0
 11
41.3576
 21
62.0391
 31
0.0
  0
LINE
  8
0
 62
     62
 10
41.3576
 20
62.0391
 30
0.0
 11
44.6056
 21
60.4654
 31
0.0
  0
LINE
  8
0
 62
     62
 10
44.6056
 20
60.4654
 30
0.0
 11
47.3562
 21
58.6299
 31
0.0
  0
LINE
  8
0
 62
     62
 10
47.3562
 20
58.6299
 30
0.0
 11
49.5695
 21
56.7778
 31
0.0
  0
LINE
  8
0
 62
     62
 10
49.5695
 20
56.7778
 30
0.0
 11
51.2025
 21
55.1533
 31
0.0
  0
LINE
  8
0
 62
     62
 10
51.2025
 20
55.1533
 30
0.0
 11
52.2125
 21
53.9997
 31
0.0
  0
LINE
  8
0
 62
     62
 10
52.2125
 20
53.9997
 30
0.0
 11
52.5597
 21
53.5601
 31
0.0
  0
LINE
  8
0
 62
     62
 10
52.5597
 20
53.5601
 30
0.0
 11
52.1917
 21
53.0751
 31
0.0
  0
LINE
  8
0
 62
     62
 10
52.1917
 20
53.0751
 30
0.0
 11
51.1514
 21
51.7948
 31
0.0
  0
LINE
  8
0
 62
     62
 10
51.1514
 20
51.7948
 30
0.0
 11
49.524
 21
49.9854
 31
0.0
  0
LINE
  8
0
 62
     62
 10
49.524
 20
49.9854
 30
0.0
 11
47.4003
 21
47.9104
 31
0.0
  0
LINE
  8
0
 62
     62
 10
47.4003
 20
47.9104
 30
0.0
 11
44.8663
 21
45.835
 31
0.0
  0
LINE
  8
0
 62
     62
 10
44.8663
 20
45.835
 30
0.0
 11
42.0123
 21
44.0256
 31
0.0
  0
LINE
  8
0
 62
     62
 10
42.0123
 20
44.0256
 30
0.0
 11
38.9269
 21
42.7454
 31
0.0
  0
LINE
  8
0
 62
     62
 10
38.9269
 20
42.7454
 30
0.0
 11
35.6979
 21
42.2589
 31
0.0
  0
LINE
  8
0
 62
     62
 10
35.6979
 20
42.2589
 30
0.0
 11
33.9135
 21
42.4049
 31
0.0
  0
LINE
  8
0
 62
     62
 10
33.9135
 20
42.4049
 30
0.0
 11
32.3123
 21
42.8061
 31
0.0
  0
LINE
  8
0
 62
     62
 10
32.3123
 20
42.8061
 30
0.0
 11
32.3191
 21
55.5212
 31
0.0
  0
LINE
  8
0
 62
     62
 10
32.3191
 20
55.5212
 30
0.0
 11
35.0835
 21
54.8337
 31
0.0
  0
LINE
  8
0
 62
     62
 10
35.0835
 20
54.8337
 30
0.0
 11
37.0071
 21
53.5079
 31
0.0
  0
LINE
  8
0
 62
     62
 10
37.0071
 20
53.5079
 30
0.0
 11
38.5974
 21
51.4449
 31
0.0
  0
LINE
  8
0
 62
     62
 10
38.5974
 20
51.4449
 30
0.0
 11
40.3599
 21
48.5387
 31
0.0
  0
LINE
  8
0
 62
     62
 10
40.3599
 20
48.5387
 30
0.0
 11
46.3381
 21
53.5781
 31
0.0
  0
LINE
  8
0
 62
     62
 10
46.3381
 20
53.5781
 30
0.0
 11
46.1352
 21
53.8247
 31
0.0
  0
LINE
  8
0
 62
     62
 10
46.1352
 20
53.8247
 30
0.0
 11
45.5401
 21
54.4724
 31
0.0
  0
LINE
  8
0
 62
     62
 10
45.5401
 20
54.4724
 30
0.0
 11
44.5685
 21
55.3903
 31
0.0
  0
LINE
  8
0
 62
     62
 10
44.5685
 20
55.3903
 30
0.0
 11
43.2361
 21
56.4402
 31
0.0
  0
LINE
  8
0
 62
     62
 10
43.2361
 20
56.4402
 30
0.0
 11
41.559
 21
57.4904
 31
0.0
  0
LINE
  8
0
 62
     62
 10
41.559
 20
57.4904
 30
0.0
 11
39.5524
 21
58.408
 31
0.0
  0
LINE
  8
0
 62
     62
 10
39.5524
 20
58.408
 30
0.0
 11
37.2332
 21
59.0557
 31
0.0
  0
LINE
  8
0
 62
     62
 10
37.2332
 20
59.0557
 30
0.0
 11
34.6191
 21
59.3012
 31
0.0
  0
ENDSEC
  0
EOF
