solid OpenSCAD_Model
  facet normal -1 0 0
    outer loop
      vertex 0 0 0
      vertex 0 30.6 31.4
      vertex 0 30.6 0
    endloop
  endfacet
  facet normal -1 -0 0
    outer loop
      vertex 0 30.6 31.4
      vertex 0 0 0
      vertex 0 0 31.4
    endloop
  endfacet
  facet normal -0 0 1
    outer loop
      vertex 0 30.6 31.4
      vertex 8.7 0 31.4
      vertex 8.7 30.6 31.4
    endloop
  endfacet
  facet normal 0 0 1
    outer loop
      vertex 8.7 0 31.4
      vertex 0 30.6 31.4
      vertex 0 0 31.4
    endloop
  endfacet
  facet normal 1 -0 0
    outer loop
      vertex 8.7 0 31.4
      vertex 8.7 30.6 0
      vertex 8.7 30.6 31.4
    endloop
  endfacet
  facet normal 1 0 0
    outer loop
      vertex 8.7 30.6 0
      vertex 8.7 0 31.4
      vertex 8.7 0 0
    endloop
  endfacet
  facet normal 0 1 -0
    outer loop
      vertex 8.7 30.6 0
      vertex 0 30.6 31.4
      vertex 8.7 30.6 31.4
    endloop
  endfacet
  facet normal 0 1 0
    outer loop
      vertex 0 30.6 31.4
      vertex 8.7 30.6 0
      vertex 0 30.6 0
    endloop
  endfacet
  facet normal 0 0 -1
    outer loop
      vertex 8.7 0 0
      vertex 7.8 0.9 0
      vertex 8.7 30.6 0
    endloop
  endfacet
  facet normal 0 0 -1
    outer loop
      vertex 8.7 0 0
      vertex 0.9 0.9 0
      vertex 7.8 0.9 0
    endloop
  endfacet
  facet normal -0 0 -1
    outer loop
      vertex 0.9 0.9 0
      vertex 0 0 0
      vertex 0.9 29.7 0
    endloop
  endfacet
  facet normal 0 0 -1
    outer loop
      vertex 0 0 0
      vertex 0.9 0.9 0
      vertex 8.7 0 0
    endloop
  endfacet
  facet normal 0 0 -1
    outer loop
      vertex 7.8 29.7 0
      vertex 8.7 30.6 0
      vertex 7.8 0.9 0
    endloop
  endfacet
  facet normal 0 0 -1
    outer loop
      vertex 0.9 29.7 0
      vertex 8.7 30.6 0
      vertex 7.8 29.7 0
    endloop
  endfacet
  facet normal 0 0 -1
    outer loop
      vertex 0.9 29.7 0
      vertex 0 30.6 0
      vertex 8.7 30.6 0
    endloop
  endfacet
  facet normal 0 0 -1
    outer loop
      vertex 0 30.6 0
      vertex 0.9 29.7 0
      vertex 0 0 0
    endloop
  endfacet
  facet normal 0 -1 0
    outer loop
      vertex 0 0 0
      vertex 8.7 0 31.4
      vertex 0 0 31.4
    endloop
  endfacet
  facet normal 0 -1 -0
    outer loop
      vertex 8.7 0 31.4
      vertex 0 0 0
      vertex 8.7 0 0
    endloop
  endfacet
  facet normal 1 -0 0
    outer loop
      vertex 0.9 0.9 5.2
      vertex 0.9 29.7 0
      vertex 0.9 29.7 5.2
    endloop
  endfacet
  facet normal 1 0 0
    outer loop
      vertex 0.9 29.7 0
      vertex 0.9 0.9 5.2
      vertex 0.9 0.9 0
    endloop
  endfacet
  facet normal 0 0 -1
    outer loop
      vertex 7.8 0.9 5.2
      vertex 5.8 2.9 5.2
      vertex 7.8 29.7 5.2
    endloop
  endfacet
  facet normal 0 0 -1
    outer loop
      vertex 7.8 0.9 5.2
      vertex 2.9 2.9 5.2
      vertex 5.8 2.9 5.2
    endloop
  endfacet
  facet normal -0 0 -1
    outer loop
      vertex 2.9 2.9 5.2
      vertex 0.9 0.9 5.2
      vertex 2.9 27.7 5.2
    endloop
  endfacet
  facet normal 0 0 -1
    outer loop
      vertex 0.9 0.9 5.2
      vertex 2.9 2.9 5.2
      vertex 7.8 0.9 5.2
    endloop
  endfacet
  facet normal 0 0 -1
    outer loop
      vertex 5.8 27.7 5.2
      vertex 7.8 29.7 5.2
      vertex 5.8 2.9 5.2
    endloop
  endfacet
  facet normal 0 0 -1
    outer loop
      vertex 2.9 27.7 5.2
      vertex 7.8 29.7 5.2
      vertex 5.8 27.7 5.2
    endloop
  endfacet
  facet normal 0 0 -1
    outer loop
      vertex 2.9 27.7 5.2
      vertex 0.9 29.7 5.2
      vertex 7.8 29.7 5.2
    endloop
  endfacet
  facet normal 0 0 -1
    outer loop
      vertex 0.9 29.7 5.2
      vertex 2.9 27.7 5.2
      vertex 0.9 0.9 5.2
    endloop
  endfacet
  facet normal -1 0 0
    outer loop
      vertex 7.8 0.9 0
      vertex 7.8 29.7 5.2
      vertex 7.8 29.7 0
    endloop
  endfacet
  facet normal -1 -0 0
    outer loop
      vertex 7.8 29.7 5.2
      vertex 7.8 0.9 0
      vertex 7.8 0.9 5.2
    endloop
  endfacet
  facet normal 0 1 -0
    outer loop
      vertex 7.8 0.9 0
      vertex 0.9 0.9 5.2
      vertex 7.8 0.9 5.2
    endloop
  endfacet
  facet normal 0 1 0
    outer loop
      vertex 0.9 0.9 5.2
      vertex 7.8 0.9 0
      vertex 0.9 0.9 0
    endloop
  endfacet
  facet normal 0 -1 0
    outer loop
      vertex 0.9 29.7 0
      vertex 7.8 29.7 5.2
      vertex 0.9 29.7 5.2
    endloop
  endfacet
  facet normal 0 -1 -0
    outer loop
      vertex 7.8 29.7 5.2
      vertex 0.9 29.7 0
      vertex 7.8 29.7 0
    endloop
  endfacet
  facet normal 1 -0 0
    outer loop
      vertex 2.9 2.9 29.4
      vertex 2.9 27.7 5.2
      vertex 2.9 27.7 29.4
    endloop
  endfacet
  facet normal 1 0 0
    outer loop
      vertex 2.9 27.7 5.2
      vertex 2.9 2.9 29.4
      vertex 2.9 2.9 5.2
    endloop
  endfacet
  facet normal 0 0 -1
    outer loop
      vertex 2.9 2.9 29.4
      vertex 5.8 27.7 29.4
      vertex 5.8 2.9 29.4
    endloop
  endfacet
  facet normal -0 0 -1
    outer loop
      vertex 5.8 27.7 29.4
      vertex 2.9 2.9 29.4
      vertex 2.9 27.7 29.4
    endloop
  endfacet
  facet normal -1 0 0
    outer loop
      vertex 5.8 2.9 5.2
      vertex 5.8 27.7 29.4
      vertex 5.8 27.7 5.2
    endloop
  endfacet
  facet normal -1 -0 0
    outer loop
      vertex 5.8 27.7 29.4
      vertex 5.8 2.9 5.2
      vertex 5.8 2.9 29.4
    endloop
  endfacet
  facet normal 0 -1 0
    outer loop
      vertex 2.9 27.7 5.2
      vertex 5.8 27.7 29.4
      vertex 2.9 27.7 29.4
    endloop
  endfacet
  facet normal 0 -1 -0
    outer loop
      vertex 5.8 27.7 29.4
      vertex 2.9 27.7 5.2
      vertex 5.8 27.7 5.2
    endloop
  endfacet
  facet normal 0 1 -0
    outer loop
      vertex 5.8 2.9 5.2
      vertex 2.9 2.9 29.4
      vertex 5.8 2.9 29.4
    endloop
  endfacet
  facet normal 0 1 0
    outer loop
      vertex 2.9 2.9 29.4
      vertex 5.8 2.9 5.2
      vertex 2.9 2.9 5.2
    endloop
  endfacet
endsolid OpenSCAD_Model
