solid OpenSCAD_Model
  facet normal -1 0 0
    outer loop
      vertex 0 0 0
      vertex 0 30.6 5
      vertex 0 30.6 0
    endloop
  endfacet
  facet normal -1 -0 0
    outer loop
      vertex 0 30.6 5
      vertex 0 0 0
      vertex 0 0 5
    endloop
  endfacet
  facet normal 0 0 1
    outer loop
      vertex 8.7 30.6 5
      vertex 7.6 29.5 5
      vertex 8.7 0 5
    endloop
  endfacet
  facet normal 0 0 1
    outer loop
      vertex 8.7 30.6 5
      vertex 1.1 29.5 5
      vertex 7.6 29.5 5
    endloop
  endfacet
  facet normal 0 0 1
    outer loop
      vertex 1.1 29.5 5
      vertex 0 30.6 5
      vertex 1.1 1.1 5
    endloop
  endfacet
  facet normal -0 0 1
    outer loop
      vertex 0 30.6 5
      vertex 1.1 29.5 5
      vertex 8.7 30.6 5
    endloop
  endfacet
  facet normal -0 0 1
    outer loop
      vertex 7.6 1.1 5
      vertex 8.7 0 5
      vertex 7.6 29.5 5
    endloop
  endfacet
  facet normal -0 0 1
    outer loop
      vertex 1.1 1.1 5
      vertex 8.7 0 5
      vertex 7.6 1.1 5
    endloop
  endfacet
  facet normal 0 0 1
    outer loop
      vertex 1.1 1.1 5
      vertex 0 0 5
      vertex 8.7 0 5
    endloop
  endfacet
  facet normal 0 0 1
    outer loop
      vertex 0 0 5
      vertex 1.1 1.1 5
      vertex 0 30.6 5
    endloop
  endfacet
  facet normal 1 -0 0
    outer loop
      vertex 8.7 0 5
      vertex 8.7 30.6 0
      vertex 8.7 30.6 5
    endloop
  endfacet
  facet normal 1 0 0
    outer loop
      vertex 8.7 30.6 0
      vertex 8.7 0 5
      vertex 8.7 0 0
    endloop
  endfacet
  facet normal 0 0 -1
    outer loop
      vertex 0 0 0
      vertex 8.7 30.6 0
      vertex 8.7 0 0
    endloop
  endfacet
  facet normal -0 0 -1
    outer loop
      vertex 8.7 30.6 0
      vertex 0 0 0
      vertex 0 30.6 0
    endloop
  endfacet
  facet normal 0 -1 0
    outer loop
      vertex 0 0 0
      vertex 8.7 0 5
      vertex 0 0 5
    endloop
  endfacet
  facet normal 0 -1 -0
    outer loop
      vertex 8.7 0 5
      vertex 0 0 0
      vertex 8.7 0 0
    endloop
  endfacet
  facet normal 0 1 -0
    outer loop
      vertex 8.7 30.6 0
      vertex 0 30.6 5
      vertex 8.7 30.6 5
    endloop
  endfacet
  facet normal 0 1 0
    outer loop
      vertex 0 30.6 5
      vertex 8.7 30.6 0
      vertex 0 30.6 0
    endloop
  endfacet
  facet normal -1 0 0
    outer loop
      vertex 1.1 1.1 5
      vertex 1.1 29.5 10
      vertex 1.1 29.5 5
    endloop
  endfacet
  facet normal -1 -0 0
    outer loop
      vertex 1.1 29.5 10
      vertex 1.1 1.1 5
      vertex 1.1 1.1 10
    endloop
  endfacet
  facet normal 0 0 1
    outer loop
      vertex 7.6 29.5 10
      vertex 5.6 27.5 10
      vertex 7.6 1.1 10
    endloop
  endfacet
  facet normal 0 0 1
    outer loop
      vertex 7.6 29.5 10
      vertex 3.1 27.5 10
      vertex 5.6 27.5 10
    endloop
  endfacet
  facet normal 0 0 1
    outer loop
      vertex 3.1 27.5 10
      vertex 1.1 29.5 10
      vertex 3.1 3.1 10
    endloop
  endfacet
  facet normal -0 0 1
    outer loop
      vertex 1.1 29.5 10
      vertex 3.1 27.5 10
      vertex 7.6 29.5 10
    endloop
  endfacet
  facet normal -0 0 1
    outer loop
      vertex 5.6 3.1 10
      vertex 7.6 1.1 10
      vertex 5.6 27.5 10
    endloop
  endfacet
  facet normal -0 0 1
    outer loop
      vertex 3.1 3.1 10
      vertex 7.6 1.1 10
      vertex 5.6 3.1 10
    endloop
  endfacet
  facet normal 0 0 1
    outer loop
      vertex 3.1 3.1 10
      vertex 1.1 1.1 10
      vertex 7.6 1.1 10
    endloop
  endfacet
  facet normal 0 0 1
    outer loop
      vertex 1.1 1.1 10
      vertex 3.1 3.1 10
      vertex 1.1 29.5 10
    endloop
  endfacet
  facet normal 1 -0 0
    outer loop
      vertex 7.6 1.1 10
      vertex 7.6 29.5 5
      vertex 7.6 29.5 10
    endloop
  endfacet
  facet normal 1 0 0
    outer loop
      vertex 7.6 29.5 5
      vertex 7.6 1.1 10
      vertex 7.6 1.1 5
    endloop
  endfacet
  facet normal 0 1 -0
    outer loop
      vertex 7.6 29.5 5
      vertex 1.1 29.5 10
      vertex 7.6 29.5 10
    endloop
  endfacet
  facet normal 0 1 0
    outer loop
      vertex 1.1 29.5 10
      vertex 7.6 29.5 5
      vertex 1.1 29.5 5
    endloop
  endfacet
  facet normal 0 -1 0
    outer loop
      vertex 1.1 1.1 5
      vertex 7.6 1.1 10
      vertex 1.1 1.1 10
    endloop
  endfacet
  facet normal 0 -1 -0
    outer loop
      vertex 7.6 1.1 10
      vertex 1.1 1.1 5
      vertex 7.6 1.1 5
    endloop
  endfacet
  facet normal 1 -0 0
    outer loop
      vertex 3.1 3.1 10
      vertex 3.1 27.5 2
      vertex 3.1 27.5 10
    endloop
  endfacet
  facet normal 1 0 0
    outer loop
      vertex 3.1 27.5 2
      vertex 3.1 3.1 10
      vertex 3.1 3.1 2
    endloop
  endfacet
  facet normal -1 0 0
    outer loop
      vertex 5.6 3.1 2
      vertex 5.6 27.5 10
      vertex 5.6 27.5 2
    endloop
  endfacet
  facet normal -1 -0 0
    outer loop
      vertex 5.6 27.5 10
      vertex 5.6 3.1 2
      vertex 5.6 3.1 10
    endloop
  endfacet
  facet normal -0 0 1
    outer loop
      vertex 3.1 27.5 2
      vertex 5.6 3.1 2
      vertex 5.6 27.5 2
    endloop
  endfacet
  facet normal 0 0 1
    outer loop
      vertex 5.6 3.1 2
      vertex 3.1 27.5 2
      vertex 3.1 3.1 2
    endloop
  endfacet
  facet normal 0 1 -0
    outer loop
      vertex 5.6 3.1 2
      vertex 3.1 3.1 10
      vertex 5.6 3.1 10
    endloop
  endfacet
  facet normal 0 1 0
    outer loop
      vertex 3.1 3.1 10
      vertex 5.6 3.1 2
      vertex 3.1 3.1 2
    endloop
  endfacet
  facet normal 0 -1 0
    outer loop
      vertex 3.1 27.5 2
      vertex 5.6 27.5 10
      vertex 3.1 27.5 10
    endloop
  endfacet
  facet normal 0 -1 -0
    outer loop
      vertex 5.6 27.5 10
      vertex 3.1 27.5 2
      vertex 5.6 27.5 2
    endloop
  endfacet
endsolid OpenSCAD_Model
