solid OpenSCAD_Model
  facet normal -1 0 0
    outer loop
      vertex 0 0 0
      vertex 0 30.6 15
      vertex 0 30.6 0
    endloop
  endfacet
  facet normal -1 -0 0
    outer loop
      vertex 0 30.6 15
      vertex 0 0 0
      vertex 0 0 15
    endloop
  endfacet
  facet normal 0 0 1
    outer loop
      vertex 116.7 30.6 15
      vertex 115.6 29.5 15
      vertex 116.7 0 15
    endloop
  endfacet
  facet normal 0 0 1
    outer loop
      vertex 116.7 30.6 15
      vertex 1.1 29.5 15
      vertex 115.6 29.5 15
    endloop
  endfacet
  facet normal 0 0 1
    outer loop
      vertex 1.1 29.5 15
      vertex 0 30.6 15
      vertex 1.1 1.1 15
    endloop
  endfacet
  facet normal -0 0 1
    outer loop
      vertex 0 30.6 15
      vertex 1.1 29.5 15
      vertex 116.7 30.6 15
    endloop
  endfacet
  facet normal -0 0 1
    outer loop
      vertex 115.6 1.1 15
      vertex 116.7 0 15
      vertex 115.6 29.5 15
    endloop
  endfacet
  facet normal -0 0 1
    outer loop
      vertex 1.1 1.1 15
      vertex 116.7 0 15
      vertex 115.6 1.1 15
    endloop
  endfacet
  facet normal 0 0 1
    outer loop
      vertex 1.1 1.1 15
      vertex 0 0 15
      vertex 116.7 0 15
    endloop
  endfacet
  facet normal 0 0 1
    outer loop
      vertex 0 0 15
      vertex 1.1 1.1 15
      vertex 0 30.6 15
    endloop
  endfacet
  facet normal 1 -0 0
    outer loop
      vertex 116.7 0 15
      vertex 116.7 30.6 0
      vertex 116.7 30.6 15
    endloop
  endfacet
  facet normal 1 0 0
    outer loop
      vertex 116.7 30.6 0
      vertex 116.7 0 15
      vertex 116.7 0 0
    endloop
  endfacet
  facet normal 0 1 -0
    outer loop
      vertex 116.7 30.6 0
      vertex 0 30.6 15
      vertex 116.7 30.6 15
    endloop
  endfacet
  facet normal 0 1 0
    outer loop
      vertex 0 30.6 15
      vertex 116.7 30.6 0
      vertex 0 30.6 0
    endloop
  endfacet
  facet normal 0 0 -1
    outer loop
      vertex 0 0 0
      vertex 116.7 30.6 0
      vertex 116.7 0 0
    endloop
  endfacet
  facet normal -0 0 -1
    outer loop
      vertex 116.7 30.6 0
      vertex 0 0 0
      vertex 0 30.6 0
    endloop
  endfacet
  facet normal 0 -1 0
    outer loop
      vertex 0 0 0
      vertex 116.7 0 15
      vertex 0 0 15
    endloop
  endfacet
  facet normal 0 -1 -0
    outer loop
      vertex 116.7 0 15
      vertex 0 0 0
      vertex 116.7 0 0
    endloop
  endfacet
  facet normal -1 0 0
    outer loop
      vertex 1.1 1.1 15
      vertex 1.1 29.5 20
      vertex 1.1 29.5 15
    endloop
  endfacet
  facet normal -1 -0 0
    outer loop
      vertex 1.1 29.5 20
      vertex 1.1 1.1 15
      vertex 1.1 1.1 20
    endloop
  endfacet
  facet normal 0 0 1
    outer loop
      vertex 115.6 29.5 20
      vertex 113.6 27.5 20
      vertex 115.6 1.1 20
    endloop
  endfacet
  facet normal 0 0 1
    outer loop
      vertex 115.6 29.5 20
      vertex 111.1 27.5 20
      vertex 113.6 27.5 20
    endloop
  endfacet
  facet normal 0 0 1
    outer loop
      vertex 111.1 27.5 20
      vertex 109.1 27.5 20
      vertex 111.1 3.1 20
    endloop
  endfacet
  facet normal 0 0 1
    outer loop
      vertex 115.6 29.5 20
      vertex 109.1 27.5 20
      vertex 111.1 27.5 20
    endloop
  endfacet
  facet normal 0 0 1
    outer loop
      vertex 115.6 29.5 20
      vertex 106.6 27.5 20
      vertex 109.1 27.5 20
    endloop
  endfacet
  facet normal 0 0 1
    outer loop
      vertex 106.6 27.5 20
      vertex 104.6 27.5 20
      vertex 106.6 3.1 20
    endloop
  endfacet
  facet normal 0 0 1
    outer loop
      vertex 115.6 29.5 20
      vertex 104.6 27.5 20
      vertex 106.6 27.5 20
    endloop
  endfacet
  facet normal 0 0 1
    outer loop
      vertex 115.6 29.5 20
      vertex 102.1 27.5 20
      vertex 104.6 27.5 20
    endloop
  endfacet
  facet normal 0 0 1
    outer loop
      vertex 102.1 27.5 20
      vertex 100.1 27.5 20
      vertex 102.1 3.1 20
    endloop
  endfacet
  facet normal 0 0 1
    outer loop
      vertex 115.6 29.5 20
      vertex 100.1 27.5 20
      vertex 102.1 27.5 20
    endloop
  endfacet
  facet normal 0 0 1
    outer loop
      vertex 115.6 29.5 20
      vertex 97.6 27.5 20
      vertex 100.1 27.5 20
    endloop
  endfacet
  facet normal 0 0 1
    outer loop
      vertex 97.6 27.5 20
      vertex 95.6 27.5 20
      vertex 97.6 3.1 20
    endloop
  endfacet
  facet normal 0 0 1
    outer loop
      vertex 115.6 29.5 20
      vertex 95.6 27.5 20
      vertex 97.6 27.5 20
    endloop
  endfacet
  facet normal 0 0 1
    outer loop
      vertex 115.6 29.5 20
      vertex 93.1 27.5 20
      vertex 95.6 27.5 20
    endloop
  endfacet
  facet normal 0 0 1
    outer loop
      vertex 93.1 27.5 20
      vertex 91.1 27.5 20
      vertex 93.1 3.1 20
    endloop
  endfacet
  facet normal 0 0 1
    outer loop
      vertex 115.6 29.5 20
      vertex 91.1 27.5 20
      vertex 93.1 27.5 20
    endloop
  endfacet
  facet normal 0 0 1
    outer loop
      vertex 115.6 29.5 20
      vertex 88.6 27.5 20
      vertex 91.1 27.5 20
    endloop
  endfacet
  facet normal 0 0 1
    outer loop
      vertex 88.6 27.5 20
      vertex 86.6 27.5 20
      vertex 88.6 3.1 20
    endloop
  endfacet
  facet normal 0 0 1
    outer loop
      vertex 115.6 29.5 20
      vertex 86.6 27.5 20
      vertex 88.6 27.5 20
    endloop
  endfacet
  facet normal 0 0 1
    outer loop
      vertex 115.6 29.5 20
      vertex 84.1 27.5 20
      vertex 86.6 27.5 20
    endloop
  endfacet
  facet normal 0 0 1
    outer loop
      vertex 84.1 27.5 20
      vertex 82.1 27.5 20
      vertex 84.1 3.1 20
    endloop
  endfacet
  facet normal 0 0 1
    outer loop
      vertex 115.6 29.5 20
      vertex 82.1 27.5 20
      vertex 84.1 27.5 20
    endloop
  endfacet
  facet normal 0 0 1
    outer loop
      vertex 115.6 29.5 20
      vertex 79.6 27.5 20
      vertex 82.1 27.5 20
    endloop
  endfacet
  facet normal 0 0 1
    outer loop
      vertex 79.6 27.5 20
      vertex 77.6 27.5 20
      vertex 79.6 3.1 20
    endloop
  endfacet
  facet normal 0 0 1
    outer loop
      vertex 115.6 29.5 20
      vertex 77.6 27.5 20
      vertex 79.6 27.5 20
    endloop
  endfacet
  facet normal 0 0 1
    outer loop
      vertex 115.6 29.5 20
      vertex 75.1 27.5 20
      vertex 77.6 27.5 20
    endloop
  endfacet
  facet normal 0 0 1
    outer loop
      vertex 75.1 27.5 20
      vertex 73.1 27.5 20
      vertex 75.1 3.1 20
    endloop
  endfacet
  facet normal 0 0 1
    outer loop
      vertex 115.6 29.5 20
      vertex 73.1 27.5 20
      vertex 75.1 27.5 20
    endloop
  endfacet
  facet normal 0 0 1
    outer loop
      vertex 115.6 29.5 20
      vertex 70.6 27.5 20
      vertex 73.1 27.5 20
    endloop
  endfacet
  facet normal 0 0 1
    outer loop
      vertex 70.6 27.5 20
      vertex 68.6 27.5 20
      vertex 70.6 3.1 20
    endloop
  endfacet
  facet normal 0 0 1
    outer loop
      vertex 115.6 29.5 20
      vertex 68.6 27.5 20
      vertex 70.6 27.5 20
    endloop
  endfacet
  facet normal 0 0 1
    outer loop
      vertex 115.6 29.5 20
      vertex 66.1 27.5 20
      vertex 68.6 27.5 20
    endloop
  endfacet
  facet normal 0 0 1
    outer loop
      vertex 66.1 27.5 20
      vertex 64.1 27.5 20
      vertex 66.1 3.1 20
    endloop
  endfacet
  facet normal 0 0 1
    outer loop
      vertex 115.6 29.5 20
      vertex 64.1 27.5 20
      vertex 66.1 27.5 20
    endloop
  endfacet
  facet normal 0 0 1
    outer loop
      vertex 115.6 29.5 20
      vertex 61.6 27.5 20
      vertex 64.1 27.5 20
    endloop
  endfacet
  facet normal 0 0 1
    outer loop
      vertex 61.6 27.5 20
      vertex 59.6 27.5 20
      vertex 61.6 3.1 20
    endloop
  endfacet
  facet normal 0 0 1
    outer loop
      vertex 115.6 29.5 20
      vertex 59.6 27.5 20
      vertex 61.6 27.5 20
    endloop
  endfacet
  facet normal 0 0 1
    outer loop
      vertex 115.6 29.5 20
      vertex 57.1 27.5 20
      vertex 59.6 27.5 20
    endloop
  endfacet
  facet normal 0 0 1
    outer loop
      vertex 57.1 27.5 20
      vertex 55.1 27.5 20
      vertex 57.1 3.1 20
    endloop
  endfacet
  facet normal 0 0 1
    outer loop
      vertex 115.6 29.5 20
      vertex 55.1 27.5 20
      vertex 57.1 27.5 20
    endloop
  endfacet
  facet normal 0 0 1
    outer loop
      vertex 115.6 29.5 20
      vertex 52.6 27.5 20
      vertex 55.1 27.5 20
    endloop
  endfacet
  facet normal 0 0 1
    outer loop
      vertex 52.6 27.5 20
      vertex 50.6 27.5 20
      vertex 52.6 3.1 20
    endloop
  endfacet
  facet normal 0 0 1
    outer loop
      vertex 115.6 29.5 20
      vertex 50.6 27.5 20
      vertex 52.6 27.5 20
    endloop
  endfacet
  facet normal -0 0 1
    outer loop
      vertex 1.1 29.5 20
      vertex 50.6 27.5 20
      vertex 115.6 29.5 20
    endloop
  endfacet
  facet normal 0 0 1
    outer loop
      vertex 48.1 27.5 20
      vertex 46.1 27.5 20
      vertex 48.1 3.1 20
    endloop
  endfacet
  facet normal 0 0 1
    outer loop
      vertex 50.6 27.5 20
      vertex 1.1 29.5 20
      vertex 48.1 27.5 20
    endloop
  endfacet
  facet normal 0 0 1
    outer loop
      vertex 48.1 27.5 20
      vertex 1.1 29.5 20
      vertex 46.1 27.5 20
    endloop
  endfacet
  facet normal 0 0 1
    outer loop
      vertex 43.6 27.5 20
      vertex 41.6 27.5 20
      vertex 43.6 3.1 20
    endloop
  endfacet
  facet normal 0 0 1
    outer loop
      vertex 46.1 27.5 20
      vertex 1.1 29.5 20
      vertex 43.6 27.5 20
    endloop
  endfacet
  facet normal 0 0 1
    outer loop
      vertex 43.6 27.5 20
      vertex 1.1 29.5 20
      vertex 41.6 27.5 20
    endloop
  endfacet
  facet normal 0 0 1
    outer loop
      vertex 39.1 27.5 20
      vertex 37.1 27.5 20
      vertex 39.1 3.1 20
    endloop
  endfacet
  facet normal 0 0 1
    outer loop
      vertex 41.6 27.5 20
      vertex 1.1 29.5 20
      vertex 39.1 27.5 20
    endloop
  endfacet
  facet normal 0 0 1
    outer loop
      vertex 39.1 27.5 20
      vertex 1.1 29.5 20
      vertex 37.1 27.5 20
    endloop
  endfacet
  facet normal 0 0 1
    outer loop
      vertex 34.6 27.5 20
      vertex 32.6 27.5 20
      vertex 34.6 3.1 20
    endloop
  endfacet
  facet normal 0 0 1
    outer loop
      vertex 37.1 27.5 20
      vertex 1.1 29.5 20
      vertex 34.6 27.5 20
    endloop
  endfacet
  facet normal 0 0 1
    outer loop
      vertex 34.6 27.5 20
      vertex 1.1 29.5 20
      vertex 32.6 27.5 20
    endloop
  endfacet
  facet normal 0 0 1
    outer loop
      vertex 30.1 27.5 20
      vertex 28.1 27.5 20
      vertex 30.1 3.1 20
    endloop
  endfacet
  facet normal 0 0 1
    outer loop
      vertex 32.6 27.5 20
      vertex 1.1 29.5 20
      vertex 30.1 27.5 20
    endloop
  endfacet
  facet normal 0 0 1
    outer loop
      vertex 30.1 27.5 20
      vertex 1.1 29.5 20
      vertex 28.1 27.5 20
    endloop
  endfacet
  facet normal 0 0 1
    outer loop
      vertex 25.6 27.5 20
      vertex 23.6 27.5 20
      vertex 25.6 3.1 20
    endloop
  endfacet
  facet normal 0 0 1
    outer loop
      vertex 28.1 27.5 20
      vertex 1.1 29.5 20
      vertex 25.6 27.5 20
    endloop
  endfacet
  facet normal 0 0 1
    outer loop
      vertex 25.6 27.5 20
      vertex 1.1 29.5 20
      vertex 23.6 27.5 20
    endloop
  endfacet
  facet normal 0 0 1
    outer loop
      vertex 21.1 27.5 20
      vertex 19.1 27.5 20
      vertex 21.1 3.1 20
    endloop
  endfacet
  facet normal 0 0 1
    outer loop
      vertex 23.6 27.5 20
      vertex 1.1 29.5 20
      vertex 21.1 27.5 20
    endloop
  endfacet
  facet normal 0 0 1
    outer loop
      vertex 21.1 27.5 20
      vertex 1.1 29.5 20
      vertex 19.1 27.5 20
    endloop
  endfacet
  facet normal 0 0 1
    outer loop
      vertex 16.6 27.5 20
      vertex 14.6 27.5 20
      vertex 16.6 3.1 20
    endloop
  endfacet
  facet normal 0 0 1
    outer loop
      vertex 19.1 27.5 20
      vertex 1.1 29.5 20
      vertex 16.6 27.5 20
    endloop
  endfacet
  facet normal 0 0 1
    outer loop
      vertex 16.6 27.5 20
      vertex 1.1 29.5 20
      vertex 14.6 27.5 20
    endloop
  endfacet
  facet normal 0 0 1
    outer loop
      vertex 12.1 27.5 20
      vertex 10.1 27.5 20
      vertex 12.1 3.1 20
    endloop
  endfacet
  facet normal 0 0 1
    outer loop
      vertex 14.6 27.5 20
      vertex 1.1 29.5 20
      vertex 12.1 27.5 20
    endloop
  endfacet
  facet normal 0 0 1
    outer loop
      vertex 12.1 27.5 20
      vertex 1.1 29.5 20
      vertex 10.1 27.5 20
    endloop
  endfacet
  facet normal 0 0 1
    outer loop
      vertex 7.6 27.5 20
      vertex 5.6 27.5 20
      vertex 7.6 3.1 20
    endloop
  endfacet
  facet normal 0 0 1
    outer loop
      vertex 10.1 27.5 20
      vertex 1.1 29.5 20
      vertex 7.6 27.5 20
    endloop
  endfacet
  facet normal 0 0 1
    outer loop
      vertex 7.6 27.5 20
      vertex 1.1 29.5 20
      vertex 5.6 27.5 20
    endloop
  endfacet
  facet normal 0 0 1
    outer loop
      vertex 3.1 27.5 20
      vertex 1.1 29.5 20
      vertex 3.1 3.1 20
    endloop
  endfacet
  facet normal 0 0 1
    outer loop
      vertex 5.6 27.5 20
      vertex 1.1 29.5 20
      vertex 3.1 27.5 20
    endloop
  endfacet
  facet normal -0 0 1
    outer loop
      vertex 113.6 3.1 20
      vertex 115.6 1.1 20
      vertex 113.6 27.5 20
    endloop
  endfacet
  facet normal -0 0 1
    outer loop
      vertex 111.1 3.1 20
      vertex 115.6 1.1 20
      vertex 113.6 3.1 20
    endloop
  endfacet
  facet normal 0 0 1
    outer loop
      vertex 109.1 3.1 20
      vertex 111.1 3.1 20
      vertex 109.1 27.5 20
    endloop
  endfacet
  facet normal -0 0 1
    outer loop
      vertex 109.1 3.1 20
      vertex 115.6 1.1 20
      vertex 111.1 3.1 20
    endloop
  endfacet
  facet normal -0 0 1
    outer loop
      vertex 106.6 3.1 20
      vertex 115.6 1.1 20
      vertex 109.1 3.1 20
    endloop
  endfacet
  facet normal 0 0 1
    outer loop
      vertex 104.6 3.1 20
      vertex 106.6 3.1 20
      vertex 104.6 27.5 20
    endloop
  endfacet
  facet normal -0 0 1
    outer loop
      vertex 104.6 3.1 20
      vertex 115.6 1.1 20
      vertex 106.6 3.1 20
    endloop
  endfacet
  facet normal -0 0 1
    outer loop
      vertex 102.1 3.1 20
      vertex 115.6 1.1 20
      vertex 104.6 3.1 20
    endloop
  endfacet
  facet normal 0 0 1
    outer loop
      vertex 100.1 3.1 20
      vertex 102.1 3.1 20
      vertex 100.1 27.5 20
    endloop
  endfacet
  facet normal -0 0 1
    outer loop
      vertex 100.1 3.1 20
      vertex 115.6 1.1 20
      vertex 102.1 3.1 20
    endloop
  endfacet
  facet normal -0 0 1
    outer loop
      vertex 97.6 3.1 20
      vertex 115.6 1.1 20
      vertex 100.1 3.1 20
    endloop
  endfacet
  facet normal 0 0 1
    outer loop
      vertex 95.6 3.1 20
      vertex 97.6 3.1 20
      vertex 95.6 27.5 20
    endloop
  endfacet
  facet normal -0 0 1
    outer loop
      vertex 95.6 3.1 20
      vertex 115.6 1.1 20
      vertex 97.6 3.1 20
    endloop
  endfacet
  facet normal -0 0 1
    outer loop
      vertex 93.1 3.1 20
      vertex 115.6 1.1 20
      vertex 95.6 3.1 20
    endloop
  endfacet
  facet normal 0 0 1
    outer loop
      vertex 91.1 3.1 20
      vertex 93.1 3.1 20
      vertex 91.1 27.5 20
    endloop
  endfacet
  facet normal -0 0 1
    outer loop
      vertex 91.1 3.1 20
      vertex 115.6 1.1 20
      vertex 93.1 3.1 20
    endloop
  endfacet
  facet normal -0 0 1
    outer loop
      vertex 88.6 3.1 20
      vertex 115.6 1.1 20
      vertex 91.1 3.1 20
    endloop
  endfacet
  facet normal 0 0 1
    outer loop
      vertex 86.6 3.1 20
      vertex 88.6 3.1 20
      vertex 86.6 27.5 20
    endloop
  endfacet
  facet normal -0 0 1
    outer loop
      vertex 86.6 3.1 20
      vertex 115.6 1.1 20
      vertex 88.6 3.1 20
    endloop
  endfacet
  facet normal -0 0 1
    outer loop
      vertex 84.1 3.1 20
      vertex 115.6 1.1 20
      vertex 86.6 3.1 20
    endloop
  endfacet
  facet normal 0 0 1
    outer loop
      vertex 82.1 3.1 20
      vertex 84.1 3.1 20
      vertex 82.1 27.5 20
    endloop
  endfacet
  facet normal -0 0 1
    outer loop
      vertex 82.1 3.1 20
      vertex 115.6 1.1 20
      vertex 84.1 3.1 20
    endloop
  endfacet
  facet normal -0 0 1
    outer loop
      vertex 79.6 3.1 20
      vertex 115.6 1.1 20
      vertex 82.1 3.1 20
    endloop
  endfacet
  facet normal 0 0 1
    outer loop
      vertex 77.6 3.1 20
      vertex 79.6 3.1 20
      vertex 77.6 27.5 20
    endloop
  endfacet
  facet normal -0 0 1
    outer loop
      vertex 77.6 3.1 20
      vertex 115.6 1.1 20
      vertex 79.6 3.1 20
    endloop
  endfacet
  facet normal -0 0 1
    outer loop
      vertex 75.1 3.1 20
      vertex 115.6 1.1 20
      vertex 77.6 3.1 20
    endloop
  endfacet
  facet normal 0 0 1
    outer loop
      vertex 73.1 3.1 20
      vertex 75.1 3.1 20
      vertex 73.1 27.5 20
    endloop
  endfacet
  facet normal -0 0 1
    outer loop
      vertex 73.1 3.1 20
      vertex 115.6 1.1 20
      vertex 75.1 3.1 20
    endloop
  endfacet
  facet normal -0 0 1
    outer loop
      vertex 70.6 3.1 20
      vertex 115.6 1.1 20
      vertex 73.1 3.1 20
    endloop
  endfacet
  facet normal 0 0 1
    outer loop
      vertex 68.6 3.1 20
      vertex 70.6 3.1 20
      vertex 68.6 27.5 20
    endloop
  endfacet
  facet normal -0 0 1
    outer loop
      vertex 68.6 3.1 20
      vertex 115.6 1.1 20
      vertex 70.6 3.1 20
    endloop
  endfacet
  facet normal -0 0 1
    outer loop
      vertex 66.1 3.1 20
      vertex 115.6 1.1 20
      vertex 68.6 3.1 20
    endloop
  endfacet
  facet normal 0 0 1
    outer loop
      vertex 64.1 3.1 20
      vertex 66.1 3.1 20
      vertex 64.1 27.5 20
    endloop
  endfacet
  facet normal -0 0 1
    outer loop
      vertex 64.1 3.1 20
      vertex 115.6 1.1 20
      vertex 66.1 3.1 20
    endloop
  endfacet
  facet normal -0 0 1
    outer loop
      vertex 61.6 3.1 20
      vertex 115.6 1.1 20
      vertex 64.1 3.1 20
    endloop
  endfacet
  facet normal 0 0 1
    outer loop
      vertex 59.6 3.1 20
      vertex 61.6 3.1 20
      vertex 59.6 27.5 20
    endloop
  endfacet
  facet normal -0 0 1
    outer loop
      vertex 59.6 3.1 20
      vertex 115.6 1.1 20
      vertex 61.6 3.1 20
    endloop
  endfacet
  facet normal -0 0 1
    outer loop
      vertex 57.1 3.1 20
      vertex 115.6 1.1 20
      vertex 59.6 3.1 20
    endloop
  endfacet
  facet normal 0 0 1
    outer loop
      vertex 55.1 3.1 20
      vertex 57.1 3.1 20
      vertex 55.1 27.5 20
    endloop
  endfacet
  facet normal -0 0 1
    outer loop
      vertex 55.1 3.1 20
      vertex 115.6 1.1 20
      vertex 57.1 3.1 20
    endloop
  endfacet
  facet normal -0 0 1
    outer loop
      vertex 52.6 3.1 20
      vertex 115.6 1.1 20
      vertex 55.1 3.1 20
    endloop
  endfacet
  facet normal 0 0 1
    outer loop
      vertex 50.6 3.1 20
      vertex 52.6 3.1 20
      vertex 50.6 27.5 20
    endloop
  endfacet
  facet normal -0 0 1
    outer loop
      vertex 50.6 3.1 20
      vertex 115.6 1.1 20
      vertex 52.6 3.1 20
    endloop
  endfacet
  facet normal 0 0 1
    outer loop
      vertex 1.1 1.1 20
      vertex 50.6 3.1 20
      vertex 48.1 3.1 20
    endloop
  endfacet
  facet normal 0 0 1
    outer loop
      vertex 46.1 3.1 20
      vertex 48.1 3.1 20
      vertex 46.1 27.5 20
    endloop
  endfacet
  facet normal 0 0 1
    outer loop
      vertex 1.1 1.1 20
      vertex 48.1 3.1 20
      vertex 46.1 3.1 20
    endloop
  endfacet
  facet normal 0 0 1
    outer loop
      vertex 1.1 1.1 20
      vertex 46.1 3.1 20
      vertex 43.6 3.1 20
    endloop
  endfacet
  facet normal 0 0 1
    outer loop
      vertex 41.6 3.1 20
      vertex 43.6 3.1 20
      vertex 41.6 27.5 20
    endloop
  endfacet
  facet normal 0 0 1
    outer loop
      vertex 1.1 1.1 20
      vertex 43.6 3.1 20
      vertex 41.6 3.1 20
    endloop
  endfacet
  facet normal 0 0 1
    outer loop
      vertex 1.1 1.1 20
      vertex 41.6 3.1 20
      vertex 39.1 3.1 20
    endloop
  endfacet
  facet normal 0 0 1
    outer loop
      vertex 37.1 3.1 20
      vertex 39.1 3.1 20
      vertex 37.1 27.5 20
    endloop
  endfacet
  facet normal 0 0 1
    outer loop
      vertex 1.1 1.1 20
      vertex 39.1 3.1 20
      vertex 37.1 3.1 20
    endloop
  endfacet
  facet normal 0 0 1
    outer loop
      vertex 1.1 1.1 20
      vertex 37.1 3.1 20
      vertex 34.6 3.1 20
    endloop
  endfacet
  facet normal 0 0 1
    outer loop
      vertex 32.6 3.1 20
      vertex 34.6 3.1 20
      vertex 32.6 27.5 20
    endloop
  endfacet
  facet normal 0 0 1
    outer loop
      vertex 1.1 1.1 20
      vertex 34.6 3.1 20
      vertex 32.6 3.1 20
    endloop
  endfacet
  facet normal 0 0 1
    outer loop
      vertex 1.1 1.1 20
      vertex 32.6 3.1 20
      vertex 30.1 3.1 20
    endloop
  endfacet
  facet normal 0 0 1
    outer loop
      vertex 28.1 3.1 20
      vertex 30.1 3.1 20
      vertex 28.1 27.5 20
    endloop
  endfacet
  facet normal 0 0 1
    outer loop
      vertex 1.1 1.1 20
      vertex 30.1 3.1 20
      vertex 28.1 3.1 20
    endloop
  endfacet
  facet normal 0 0 1
    outer loop
      vertex 1.1 1.1 20
      vertex 28.1 3.1 20
      vertex 25.6 3.1 20
    endloop
  endfacet
  facet normal 0 0 1
    outer loop
      vertex 23.6 3.1 20
      vertex 25.6 3.1 20
      vertex 23.6 27.5 20
    endloop
  endfacet
  facet normal 0 0 1
    outer loop
      vertex 1.1 1.1 20
      vertex 25.6 3.1 20
      vertex 23.6 3.1 20
    endloop
  endfacet
  facet normal 0 0 1
    outer loop
      vertex 1.1 1.1 20
      vertex 23.6 3.1 20
      vertex 21.1 3.1 20
    endloop
  endfacet
  facet normal 0 0 1
    outer loop
      vertex 19.1 3.1 20
      vertex 21.1 3.1 20
      vertex 19.1 27.5 20
    endloop
  endfacet
  facet normal 0 0 1
    outer loop
      vertex 1.1 1.1 20
      vertex 21.1 3.1 20
      vertex 19.1 3.1 20
    endloop
  endfacet
  facet normal 0 0 1
    outer loop
      vertex 1.1 1.1 20
      vertex 19.1 3.1 20
      vertex 16.6 3.1 20
    endloop
  endfacet
  facet normal 0 0 1
    outer loop
      vertex 14.6 3.1 20
      vertex 16.6 3.1 20
      vertex 14.6 27.5 20
    endloop
  endfacet
  facet normal 0 0 1
    outer loop
      vertex 1.1 1.1 20
      vertex 16.6 3.1 20
      vertex 14.6 3.1 20
    endloop
  endfacet
  facet normal 0 0 1
    outer loop
      vertex 1.1 1.1 20
      vertex 14.6 3.1 20
      vertex 12.1 3.1 20
    endloop
  endfacet
  facet normal 0 0 1
    outer loop
      vertex 10.1 3.1 20
      vertex 12.1 3.1 20
      vertex 10.1 27.5 20
    endloop
  endfacet
  facet normal 0 0 1
    outer loop
      vertex 1.1 1.1 20
      vertex 12.1 3.1 20
      vertex 10.1 3.1 20
    endloop
  endfacet
  facet normal 0 0 1
    outer loop
      vertex 1.1 1.1 20
      vertex 10.1 3.1 20
      vertex 7.6 3.1 20
    endloop
  endfacet
  facet normal 0 0 1
    outer loop
      vertex 5.6 3.1 20
      vertex 7.6 3.1 20
      vertex 5.6 27.5 20
    endloop
  endfacet
  facet normal 0 0 1
    outer loop
      vertex 1.1 1.1 20
      vertex 7.6 3.1 20
      vertex 5.6 3.1 20
    endloop
  endfacet
  facet normal 0 0 1
    outer loop
      vertex 1.1 1.1 20
      vertex 5.6 3.1 20
      vertex 3.1 3.1 20
    endloop
  endfacet
  facet normal 0 0 1
    outer loop
      vertex 50.6 3.1 20
      vertex 1.1 1.1 20
      vertex 115.6 1.1 20
    endloop
  endfacet
  facet normal 0 0 1
    outer loop
      vertex 1.1 1.1 20
      vertex 3.1 3.1 20
      vertex 1.1 29.5 20
    endloop
  endfacet
  facet normal 1 -0 0
    outer loop
      vertex 115.6 1.1 20
      vertex 115.6 29.5 15
      vertex 115.6 29.5 20
    endloop
  endfacet
  facet normal 1 0 0
    outer loop
      vertex 115.6 29.5 15
      vertex 115.6 1.1 20
      vertex 115.6 1.1 15
    endloop
  endfacet
  facet normal 0 1 -0
    outer loop
      vertex 115.6 29.5 15
      vertex 1.1 29.5 20
      vertex 115.6 29.5 20
    endloop
  endfacet
  facet normal 0 1 0
    outer loop
      vertex 1.1 29.5 20
      vertex 115.6 29.5 15
      vertex 1.1 29.5 15
    endloop
  endfacet
  facet normal 0 -1 0
    outer loop
      vertex 1.1 1.1 15
      vertex 115.6 1.1 20
      vertex 1.1 1.1 20
    endloop
  endfacet
  facet normal 0 -1 -0
    outer loop
      vertex 115.6 1.1 20
      vertex 1.1 1.1 15
      vertex 115.6 1.1 15
    endloop
  endfacet
  facet normal 1 -0 0
    outer loop
      vertex 3.1 3.1 20
      vertex 3.1 27.5 2
      vertex 3.1 27.5 20
    endloop
  endfacet
  facet normal 1 0 0
    outer loop
      vertex 3.1 27.5 2
      vertex 3.1 3.1 20
      vertex 3.1 3.1 2
    endloop
  endfacet
  facet normal -1 0 0
    outer loop
      vertex 5.6 3.1 2
      vertex 5.6 27.5 20
      vertex 5.6 27.5 2
    endloop
  endfacet
  facet normal -1 -0 0
    outer loop
      vertex 5.6 27.5 20
      vertex 5.6 3.1 2
      vertex 5.6 3.1 20
    endloop
  endfacet
  facet normal 0 -1 0
    outer loop
      vertex 3.1 27.5 2
      vertex 5.6 27.5 20
      vertex 3.1 27.5 20
    endloop
  endfacet
  facet normal 0 -1 -0
    outer loop
      vertex 5.6 27.5 20
      vertex 3.1 27.5 2
      vertex 5.6 27.5 2
    endloop
  endfacet
  facet normal -0 0 1
    outer loop
      vertex 3.1 27.5 2
      vertex 5.6 3.1 2
      vertex 5.6 27.5 2
    endloop
  endfacet
  facet normal 0 0 1
    outer loop
      vertex 5.6 3.1 2
      vertex 3.1 27.5 2
      vertex 3.1 3.1 2
    endloop
  endfacet
  facet normal 0 1 -0
    outer loop
      vertex 5.6 3.1 2
      vertex 3.1 3.1 20
      vertex 5.6 3.1 20
    endloop
  endfacet
  facet normal 0 1 0
    outer loop
      vertex 3.1 3.1 20
      vertex 5.6 3.1 2
      vertex 3.1 3.1 2
    endloop
  endfacet
  facet normal 1 -0 0
    outer loop
      vertex 7.6 3.1 20
      vertex 7.6 27.5 2
      vertex 7.6 27.5 20
    endloop
  endfacet
  facet normal 1 0 0
    outer loop
      vertex 7.6 27.5 2
      vertex 7.6 3.1 20
      vertex 7.6 3.1 2
    endloop
  endfacet
  facet normal -1 0 0
    outer loop
      vertex 10.1 3.1 2
      vertex 10.1 27.5 20
      vertex 10.1 27.5 2
    endloop
  endfacet
  facet normal -1 -0 0
    outer loop
      vertex 10.1 27.5 20
      vertex 10.1 3.1 2
      vertex 10.1 3.1 20
    endloop
  endfacet
  facet normal 0 -1 0
    outer loop
      vertex 7.6 27.5 2
      vertex 10.1 27.5 20
      vertex 7.6 27.5 20
    endloop
  endfacet
  facet normal 0 -1 -0
    outer loop
      vertex 10.1 27.5 20
      vertex 7.6 27.5 2
      vertex 10.1 27.5 2
    endloop
  endfacet
  facet normal -0 0 1
    outer loop
      vertex 7.6 27.5 2
      vertex 10.1 3.1 2
      vertex 10.1 27.5 2
    endloop
  endfacet
  facet normal 0 0 1
    outer loop
      vertex 10.1 3.1 2
      vertex 7.6 27.5 2
      vertex 7.6 3.1 2
    endloop
  endfacet
  facet normal 0 1 -0
    outer loop
      vertex 10.1 3.1 2
      vertex 7.6 3.1 20
      vertex 10.1 3.1 20
    endloop
  endfacet
  facet normal 0 1 0
    outer loop
      vertex 7.6 3.1 20
      vertex 10.1 3.1 2
      vertex 7.6 3.1 2
    endloop
  endfacet
  facet normal 1 -0 0
    outer loop
      vertex 12.1 3.1 20
      vertex 12.1 27.5 2
      vertex 12.1 27.5 20
    endloop
  endfacet
  facet normal 1 0 0
    outer loop
      vertex 12.1 27.5 2
      vertex 12.1 3.1 20
      vertex 12.1 3.1 2
    endloop
  endfacet
  facet normal -1 0 0
    outer loop
      vertex 14.6 3.1 2
      vertex 14.6 27.5 20
      vertex 14.6 27.5 2
    endloop
  endfacet
  facet normal -1 -0 0
    outer loop
      vertex 14.6 27.5 20
      vertex 14.6 3.1 2
      vertex 14.6 3.1 20
    endloop
  endfacet
  facet normal -0 0 1
    outer loop
      vertex 12.1 27.5 2
      vertex 14.6 3.1 2
      vertex 14.6 27.5 2
    endloop
  endfacet
  facet normal 0 0 1
    outer loop
      vertex 14.6 3.1 2
      vertex 12.1 27.5 2
      vertex 12.1 3.1 2
    endloop
  endfacet
  facet normal 0 1 -0
    outer loop
      vertex 14.6 3.1 2
      vertex 12.1 3.1 20
      vertex 14.6 3.1 20
    endloop
  endfacet
  facet normal 0 1 0
    outer loop
      vertex 12.1 3.1 20
      vertex 14.6 3.1 2
      vertex 12.1 3.1 2
    endloop
  endfacet
  facet normal 0 -1 0
    outer loop
      vertex 12.1 27.5 2
      vertex 14.6 27.5 20
      vertex 12.1 27.5 20
    endloop
  endfacet
  facet normal 0 -1 -0
    outer loop
      vertex 14.6 27.5 20
      vertex 12.1 27.5 2
      vertex 14.6 27.5 2
    endloop
  endfacet
  facet normal 1 -0 0
    outer loop
      vertex 16.6 3.1 20
      vertex 16.6 27.5 2
      vertex 16.6 27.5 20
    endloop
  endfacet
  facet normal 1 0 0
    outer loop
      vertex 16.6 27.5 2
      vertex 16.6 3.1 20
      vertex 16.6 3.1 2
    endloop
  endfacet
  facet normal -1 0 0
    outer loop
      vertex 19.1 3.1 2
      vertex 19.1 27.5 20
      vertex 19.1 27.5 2
    endloop
  endfacet
  facet normal -1 -0 0
    outer loop
      vertex 19.1 27.5 20
      vertex 19.1 3.1 2
      vertex 19.1 3.1 20
    endloop
  endfacet
  facet normal -0 0 1
    outer loop
      vertex 16.6 27.5 2
      vertex 19.1 3.1 2
      vertex 19.1 27.5 2
    endloop
  endfacet
  facet normal 0 0 1
    outer loop
      vertex 19.1 3.1 2
      vertex 16.6 27.5 2
      vertex 16.6 3.1 2
    endloop
  endfacet
  facet normal 0 1 -0
    outer loop
      vertex 19.1 3.1 2
      vertex 16.6 3.1 20
      vertex 19.1 3.1 20
    endloop
  endfacet
  facet normal 0 1 0
    outer loop
      vertex 16.6 3.1 20
      vertex 19.1 3.1 2
      vertex 16.6 3.1 2
    endloop
  endfacet
  facet normal 0 -1 0
    outer loop
      vertex 16.6 27.5 2
      vertex 19.1 27.5 20
      vertex 16.6 27.5 20
    endloop
  endfacet
  facet normal 0 -1 -0
    outer loop
      vertex 19.1 27.5 20
      vertex 16.6 27.5 2
      vertex 19.1 27.5 2
    endloop
  endfacet
  facet normal 1 -0 0
    outer loop
      vertex 21.1 3.1 20
      vertex 21.1 27.5 2
      vertex 21.1 27.5 20
    endloop
  endfacet
  facet normal 1 0 0
    outer loop
      vertex 21.1 27.5 2
      vertex 21.1 3.1 20
      vertex 21.1 3.1 2
    endloop
  endfacet
  facet normal -1 0 0
    outer loop
      vertex 23.6 3.1 2
      vertex 23.6 27.5 20
      vertex 23.6 27.5 2
    endloop
  endfacet
  facet normal -1 -0 0
    outer loop
      vertex 23.6 27.5 20
      vertex 23.6 3.1 2
      vertex 23.6 3.1 20
    endloop
  endfacet
  facet normal 0 -1 0
    outer loop
      vertex 21.1 27.5 2
      vertex 23.6 27.5 20
      vertex 21.1 27.5 20
    endloop
  endfacet
  facet normal 0 -1 -0
    outer loop
      vertex 23.6 27.5 20
      vertex 21.1 27.5 2
      vertex 23.6 27.5 2
    endloop
  endfacet
  facet normal -0 0 1
    outer loop
      vertex 21.1 27.5 2
      vertex 23.6 3.1 2
      vertex 23.6 27.5 2
    endloop
  endfacet
  facet normal 0 0 1
    outer loop
      vertex 23.6 3.1 2
      vertex 21.1 27.5 2
      vertex 21.1 3.1 2
    endloop
  endfacet
  facet normal 0 1 -0
    outer loop
      vertex 23.6 3.1 2
      vertex 21.1 3.1 20
      vertex 23.6 3.1 20
    endloop
  endfacet
  facet normal 0 1 0
    outer loop
      vertex 21.1 3.1 20
      vertex 23.6 3.1 2
      vertex 21.1 3.1 2
    endloop
  endfacet
  facet normal 1 -0 0
    outer loop
      vertex 25.6 3.1 20
      vertex 25.6 27.5 2
      vertex 25.6 27.5 20
    endloop
  endfacet
  facet normal 1 0 0
    outer loop
      vertex 25.6 27.5 2
      vertex 25.6 3.1 20
      vertex 25.6 3.1 2
    endloop
  endfacet
  facet normal -1 0 0
    outer loop
      vertex 28.1 3.1 2
      vertex 28.1 27.5 20
      vertex 28.1 27.5 2
    endloop
  endfacet
  facet normal -1 -0 0
    outer loop
      vertex 28.1 27.5 20
      vertex 28.1 3.1 2
      vertex 28.1 3.1 20
    endloop
  endfacet
  facet normal -0 0 1
    outer loop
      vertex 25.6 27.5 2
      vertex 28.1 3.1 2
      vertex 28.1 27.5 2
    endloop
  endfacet
  facet normal 0 0 1
    outer loop
      vertex 28.1 3.1 2
      vertex 25.6 27.5 2
      vertex 25.6 3.1 2
    endloop
  endfacet
  facet normal 0 1 -0
    outer loop
      vertex 28.1 3.1 2
      vertex 25.6 3.1 20
      vertex 28.1 3.1 20
    endloop
  endfacet
  facet normal 0 1 0
    outer loop
      vertex 25.6 3.1 20
      vertex 28.1 3.1 2
      vertex 25.6 3.1 2
    endloop
  endfacet
  facet normal 0 -1 0
    outer loop
      vertex 25.6 27.5 2
      vertex 28.1 27.5 20
      vertex 25.6 27.5 20
    endloop
  endfacet
  facet normal 0 -1 -0
    outer loop
      vertex 28.1 27.5 20
      vertex 25.6 27.5 2
      vertex 28.1 27.5 2
    endloop
  endfacet
  facet normal 1 -0 0
    outer loop
      vertex 30.1 3.1 20
      vertex 30.1 27.5 2
      vertex 30.1 27.5 20
    endloop
  endfacet
  facet normal 1 0 0
    outer loop
      vertex 30.1 27.5 2
      vertex 30.1 3.1 20
      vertex 30.1 3.1 2
    endloop
  endfacet
  facet normal -1 0 0
    outer loop
      vertex 32.6 3.1 2
      vertex 32.6 27.5 20
      vertex 32.6 27.5 2
    endloop
  endfacet
  facet normal -1 -0 0
    outer loop
      vertex 32.6 27.5 20
      vertex 32.6 3.1 2
      vertex 32.6 3.1 20
    endloop
  endfacet
  facet normal -0 0 1
    outer loop
      vertex 30.1 27.5 2
      vertex 32.6 3.1 2
      vertex 32.6 27.5 2
    endloop
  endfacet
  facet normal 0 0 1
    outer loop
      vertex 32.6 3.1 2
      vertex 30.1 27.5 2
      vertex 30.1 3.1 2
    endloop
  endfacet
  facet normal 0 1 -0
    outer loop
      vertex 32.6 3.1 2
      vertex 30.1 3.1 20
      vertex 32.6 3.1 20
    endloop
  endfacet
  facet normal 0 1 0
    outer loop
      vertex 30.1 3.1 20
      vertex 32.6 3.1 2
      vertex 30.1 3.1 2
    endloop
  endfacet
  facet normal 0 -1 0
    outer loop
      vertex 30.1 27.5 2
      vertex 32.6 27.5 20
      vertex 30.1 27.5 20
    endloop
  endfacet
  facet normal 0 -1 -0
    outer loop
      vertex 32.6 27.5 20
      vertex 30.1 27.5 2
      vertex 32.6 27.5 2
    endloop
  endfacet
  facet normal 1 -0 0
    outer loop
      vertex 34.6 3.1 20
      vertex 34.6 27.5 2
      vertex 34.6 27.5 20
    endloop
  endfacet
  facet normal 1 0 0
    outer loop
      vertex 34.6 27.5 2
      vertex 34.6 3.1 20
      vertex 34.6 3.1 2
    endloop
  endfacet
  facet normal -1 0 0
    outer loop
      vertex 37.1 3.1 2
      vertex 37.1 27.5 20
      vertex 37.1 27.5 2
    endloop
  endfacet
  facet normal -1 -0 0
    outer loop
      vertex 37.1 27.5 20
      vertex 37.1 3.1 2
      vertex 37.1 3.1 20
    endloop
  endfacet
  facet normal 0 -1 0
    outer loop
      vertex 34.6 27.5 2
      vertex 37.1 27.5 20
      vertex 34.6 27.5 20
    endloop
  endfacet
  facet normal 0 -1 -0
    outer loop
      vertex 37.1 27.5 20
      vertex 34.6 27.5 2
      vertex 37.1 27.5 2
    endloop
  endfacet
  facet normal -0 0 1
    outer loop
      vertex 34.6 27.5 2
      vertex 37.1 3.1 2
      vertex 37.1 27.5 2
    endloop
  endfacet
  facet normal 0 0 1
    outer loop
      vertex 37.1 3.1 2
      vertex 34.6 27.5 2
      vertex 34.6 3.1 2
    endloop
  endfacet
  facet normal 0 1 -0
    outer loop
      vertex 37.1 3.1 2
      vertex 34.6 3.1 20
      vertex 37.1 3.1 20
    endloop
  endfacet
  facet normal 0 1 0
    outer loop
      vertex 34.6 3.1 20
      vertex 37.1 3.1 2
      vertex 34.6 3.1 2
    endloop
  endfacet
  facet normal 1 -0 0
    outer loop
      vertex 39.1 3.1 20
      vertex 39.1 27.5 2
      vertex 39.1 27.5 20
    endloop
  endfacet
  facet normal 1 0 0
    outer loop
      vertex 39.1 27.5 2
      vertex 39.1 3.1 20
      vertex 39.1 3.1 2
    endloop
  endfacet
  facet normal -1 0 0
    outer loop
      vertex 41.6 3.1 2
      vertex 41.6 27.5 20
      vertex 41.6 27.5 2
    endloop
  endfacet
  facet normal -1 -0 0
    outer loop
      vertex 41.6 27.5 20
      vertex 41.6 3.1 2
      vertex 41.6 3.1 20
    endloop
  endfacet
  facet normal 0 -1 0
    outer loop
      vertex 39.1 27.5 2
      vertex 41.6 27.5 20
      vertex 39.1 27.5 20
    endloop
  endfacet
  facet normal 0 -1 -0
    outer loop
      vertex 41.6 27.5 20
      vertex 39.1 27.5 2
      vertex 41.6 27.5 2
    endloop
  endfacet
  facet normal -0 0 1
    outer loop
      vertex 39.1 27.5 2
      vertex 41.6 3.1 2
      vertex 41.6 27.5 2
    endloop
  endfacet
  facet normal 0 0 1
    outer loop
      vertex 41.6 3.1 2
      vertex 39.1 27.5 2
      vertex 39.1 3.1 2
    endloop
  endfacet
  facet normal 0 1 -0
    outer loop
      vertex 41.6 3.1 2
      vertex 39.1 3.1 20
      vertex 41.6 3.1 20
    endloop
  endfacet
  facet normal 0 1 0
    outer loop
      vertex 39.1 3.1 20
      vertex 41.6 3.1 2
      vertex 39.1 3.1 2
    endloop
  endfacet
  facet normal 1 -0 0
    outer loop
      vertex 43.6 3.1 20
      vertex 43.6 27.5 2
      vertex 43.6 27.5 20
    endloop
  endfacet
  facet normal 1 0 0
    outer loop
      vertex 43.6 27.5 2
      vertex 43.6 3.1 20
      vertex 43.6 3.1 2
    endloop
  endfacet
  facet normal -1 0 0
    outer loop
      vertex 46.1 3.1 2
      vertex 46.1 27.5 20
      vertex 46.1 27.5 2
    endloop
  endfacet
  facet normal -1 -0 0
    outer loop
      vertex 46.1 27.5 20
      vertex 46.1 3.1 2
      vertex 46.1 3.1 20
    endloop
  endfacet
  facet normal 0 -1 0
    outer loop
      vertex 43.6 27.5 2
      vertex 46.1 27.5 20
      vertex 43.6 27.5 20
    endloop
  endfacet
  facet normal 0 -1 -0
    outer loop
      vertex 46.1 27.5 20
      vertex 43.6 27.5 2
      vertex 46.1 27.5 2
    endloop
  endfacet
  facet normal -0 0 1
    outer loop
      vertex 43.6 27.5 2
      vertex 46.1 3.1 2
      vertex 46.1 27.5 2
    endloop
  endfacet
  facet normal 0 0 1
    outer loop
      vertex 46.1 3.1 2
      vertex 43.6 27.5 2
      vertex 43.6 3.1 2
    endloop
  endfacet
  facet normal 0 1 -0
    outer loop
      vertex 46.1 3.1 2
      vertex 43.6 3.1 20
      vertex 46.1 3.1 20
    endloop
  endfacet
  facet normal 0 1 0
    outer loop
      vertex 43.6 3.1 20
      vertex 46.1 3.1 2
      vertex 43.6 3.1 2
    endloop
  endfacet
  facet normal 1 -0 0
    outer loop
      vertex 48.1 3.1 20
      vertex 48.1 27.5 2
      vertex 48.1 27.5 20
    endloop
  endfacet
  facet normal 1 0 0
    outer loop
      vertex 48.1 27.5 2
      vertex 48.1 3.1 20
      vertex 48.1 3.1 2
    endloop
  endfacet
  facet normal -1 0 0
    outer loop
      vertex 50.6 3.1 2
      vertex 50.6 27.5 20
      vertex 50.6 27.5 2
    endloop
  endfacet
  facet normal -1 -0 0
    outer loop
      vertex 50.6 27.5 20
      vertex 50.6 3.1 2
      vertex 50.6 3.1 20
    endloop
  endfacet
  facet normal -0 0 1
    outer loop
      vertex 48.1 27.5 2
      vertex 50.6 3.1 2
      vertex 50.6 27.5 2
    endloop
  endfacet
  facet normal 0 0 1
    outer loop
      vertex 50.6 3.1 2
      vertex 48.1 27.5 2
      vertex 48.1 3.1 2
    endloop
  endfacet
  facet normal 0 1 -0
    outer loop
      vertex 50.6 3.1 2
      vertex 48.1 3.1 20
      vertex 50.6 3.1 20
    endloop
  endfacet
  facet normal 0 1 0
    outer loop
      vertex 48.1 3.1 20
      vertex 50.6 3.1 2
      vertex 48.1 3.1 2
    endloop
  endfacet
  facet normal 0 -1 0
    outer loop
      vertex 48.1 27.5 2
      vertex 50.6 27.5 20
      vertex 48.1 27.5 20
    endloop
  endfacet
  facet normal 0 -1 -0
    outer loop
      vertex 50.6 27.5 20
      vertex 48.1 27.5 2
      vertex 50.6 27.5 2
    endloop
  endfacet
  facet normal 1 -0 0
    outer loop
      vertex 52.6 3.1 20
      vertex 52.6 27.5 2
      vertex 52.6 27.5 20
    endloop
  endfacet
  facet normal 1 0 0
    outer loop
      vertex 52.6 27.5 2
      vertex 52.6 3.1 20
      vertex 52.6 3.1 2
    endloop
  endfacet
  facet normal -1 0 0
    outer loop
      vertex 55.1 3.1 2
      vertex 55.1 27.5 20
      vertex 55.1 27.5 2
    endloop
  endfacet
  facet normal -1 -0 0
    outer loop
      vertex 55.1 27.5 20
      vertex 55.1 3.1 2
      vertex 55.1 3.1 20
    endloop
  endfacet
  facet normal 0 -1 0
    outer loop
      vertex 52.6 27.5 2
      vertex 55.1 27.5 20
      vertex 52.6 27.5 20
    endloop
  endfacet
  facet normal 0 -1 -0
    outer loop
      vertex 55.1 27.5 20
      vertex 52.6 27.5 2
      vertex 55.1 27.5 2
    endloop
  endfacet
  facet normal -0 0 1
    outer loop
      vertex 52.6 27.5 2
      vertex 55.1 3.1 2
      vertex 55.1 27.5 2
    endloop
  endfacet
  facet normal 0 0 1
    outer loop
      vertex 55.1 3.1 2
      vertex 52.6 27.5 2
      vertex 52.6 3.1 2
    endloop
  endfacet
  facet normal 0 1 -0
    outer loop
      vertex 55.1 3.1 2
      vertex 52.6 3.1 20
      vertex 55.1 3.1 20
    endloop
  endfacet
  facet normal 0 1 0
    outer loop
      vertex 52.6 3.1 20
      vertex 55.1 3.1 2
      vertex 52.6 3.1 2
    endloop
  endfacet
  facet normal 1 -0 0
    outer loop
      vertex 57.1 3.1 20
      vertex 57.1 27.5 2
      vertex 57.1 27.5 20
    endloop
  endfacet
  facet normal 1 0 0
    outer loop
      vertex 57.1 27.5 2
      vertex 57.1 3.1 20
      vertex 57.1 3.1 2
    endloop
  endfacet
  facet normal -1 0 0
    outer loop
      vertex 59.6 3.1 2
      vertex 59.6 27.5 20
      vertex 59.6 27.5 2
    endloop
  endfacet
  facet normal -1 -0 0
    outer loop
      vertex 59.6 27.5 20
      vertex 59.6 3.1 2
      vertex 59.6 3.1 20
    endloop
  endfacet
  facet normal 0 -1 0
    outer loop
      vertex 57.1 27.5 2
      vertex 59.6 27.5 20
      vertex 57.1 27.5 20
    endloop
  endfacet
  facet normal 0 -1 -0
    outer loop
      vertex 59.6 27.5 20
      vertex 57.1 27.5 2
      vertex 59.6 27.5 2
    endloop
  endfacet
  facet normal -0 0 1
    outer loop
      vertex 57.1 27.5 2
      vertex 59.6 3.1 2
      vertex 59.6 27.5 2
    endloop
  endfacet
  facet normal 0 0 1
    outer loop
      vertex 59.6 3.1 2
      vertex 57.1 27.5 2
      vertex 57.1 3.1 2
    endloop
  endfacet
  facet normal 0 1 -0
    outer loop
      vertex 59.6 3.1 2
      vertex 57.1 3.1 20
      vertex 59.6 3.1 20
    endloop
  endfacet
  facet normal 0 1 0
    outer loop
      vertex 57.1 3.1 20
      vertex 59.6 3.1 2
      vertex 57.1 3.1 2
    endloop
  endfacet
  facet normal 1 -0 0
    outer loop
      vertex 61.6 3.1 20
      vertex 61.6 27.5 2
      vertex 61.6 27.5 20
    endloop
  endfacet
  facet normal 1 0 0
    outer loop
      vertex 61.6 27.5 2
      vertex 61.6 3.1 20
      vertex 61.6 3.1 2
    endloop
  endfacet
  facet normal -1 0 0
    outer loop
      vertex 64.1 3.1 2
      vertex 64.1 27.5 20
      vertex 64.1 27.5 2
    endloop
  endfacet
  facet normal -1 -0 0
    outer loop
      vertex 64.1 27.5 20
      vertex 64.1 3.1 2
      vertex 64.1 3.1 20
    endloop
  endfacet
  facet normal -0 0 1
    outer loop
      vertex 61.6 27.5 2
      vertex 64.1 3.1 2
      vertex 64.1 27.5 2
    endloop
  endfacet
  facet normal 0 0 1
    outer loop
      vertex 64.1 3.1 2
      vertex 61.6 27.5 2
      vertex 61.6 3.1 2
    endloop
  endfacet
  facet normal 0 1 -0
    outer loop
      vertex 64.1 3.1 2
      vertex 61.6 3.1 20
      vertex 64.1 3.1 20
    endloop
  endfacet
  facet normal 0 1 0
    outer loop
      vertex 61.6 3.1 20
      vertex 64.1 3.1 2
      vertex 61.6 3.1 2
    endloop
  endfacet
  facet normal 0 -1 0
    outer loop
      vertex 61.6 27.5 2
      vertex 64.1 27.5 20
      vertex 61.6 27.5 20
    endloop
  endfacet
  facet normal 0 -1 -0
    outer loop
      vertex 64.1 27.5 20
      vertex 61.6 27.5 2
      vertex 64.1 27.5 2
    endloop
  endfacet
  facet normal 1 -0 0
    outer loop
      vertex 66.1 3.1 20
      vertex 66.1 27.5 2
      vertex 66.1 27.5 20
    endloop
  endfacet
  facet normal 1 0 0
    outer loop
      vertex 66.1 27.5 2
      vertex 66.1 3.1 20
      vertex 66.1 3.1 2
    endloop
  endfacet
  facet normal -1 0 0
    outer loop
      vertex 68.6 3.1 2
      vertex 68.6 27.5 20
      vertex 68.6 27.5 2
    endloop
  endfacet
  facet normal -1 -0 0
    outer loop
      vertex 68.6 27.5 20
      vertex 68.6 3.1 2
      vertex 68.6 3.1 20
    endloop
  endfacet
  facet normal -0 0 1
    outer loop
      vertex 66.1 27.5 2
      vertex 68.6 3.1 2
      vertex 68.6 27.5 2
    endloop
  endfacet
  facet normal 0 0 1
    outer loop
      vertex 68.6 3.1 2
      vertex 66.1 27.5 2
      vertex 66.1 3.1 2
    endloop
  endfacet
  facet normal 0 1 -0
    outer loop
      vertex 68.6 3.1 2
      vertex 66.1 3.1 20
      vertex 68.6 3.1 20
    endloop
  endfacet
  facet normal 0 1 0
    outer loop
      vertex 66.1 3.1 20
      vertex 68.6 3.1 2
      vertex 66.1 3.1 2
    endloop
  endfacet
  facet normal 0 -1 0
    outer loop
      vertex 66.1 27.5 2
      vertex 68.6 27.5 20
      vertex 66.1 27.5 20
    endloop
  endfacet
  facet normal 0 -1 -0
    outer loop
      vertex 68.6 27.5 20
      vertex 66.1 27.5 2
      vertex 68.6 27.5 2
    endloop
  endfacet
  facet normal 1 -0 0
    outer loop
      vertex 70.6 3.1 20
      vertex 70.6 27.5 2
      vertex 70.6 27.5 20
    endloop
  endfacet
  facet normal 1 0 0
    outer loop
      vertex 70.6 27.5 2
      vertex 70.6 3.1 20
      vertex 70.6 3.1 2
    endloop
  endfacet
  facet normal -1 0 0
    outer loop
      vertex 73.1 3.1 2
      vertex 73.1 27.5 20
      vertex 73.1 27.5 2
    endloop
  endfacet
  facet normal -1 -0 0
    outer loop
      vertex 73.1 27.5 20
      vertex 73.1 3.1 2
      vertex 73.1 3.1 20
    endloop
  endfacet
  facet normal 0 -1 0
    outer loop
      vertex 70.6 27.5 2
      vertex 73.1 27.5 20
      vertex 70.6 27.5 20
    endloop
  endfacet
  facet normal 0 -1 -0
    outer loop
      vertex 73.1 27.5 20
      vertex 70.6 27.5 2
      vertex 73.1 27.5 2
    endloop
  endfacet
  facet normal -0 0 1
    outer loop
      vertex 70.6 27.5 2
      vertex 73.1 3.1 2
      vertex 73.1 27.5 2
    endloop
  endfacet
  facet normal 0 0 1
    outer loop
      vertex 73.1 3.1 2
      vertex 70.6 27.5 2
      vertex 70.6 3.1 2
    endloop
  endfacet
  facet normal 0 1 -0
    outer loop
      vertex 73.1 3.1 2
      vertex 70.6 3.1 20
      vertex 73.1 3.1 20
    endloop
  endfacet
  facet normal 0 1 0
    outer loop
      vertex 70.6 3.1 20
      vertex 73.1 3.1 2
      vertex 70.6 3.1 2
    endloop
  endfacet
  facet normal 1 -0 0
    outer loop
      vertex 75.1 3.1 20
      vertex 75.1 27.5 2
      vertex 75.1 27.5 20
    endloop
  endfacet
  facet normal 1 0 0
    outer loop
      vertex 75.1 27.5 2
      vertex 75.1 3.1 20
      vertex 75.1 3.1 2
    endloop
  endfacet
  facet normal -1 0 0
    outer loop
      vertex 77.6 3.1 2
      vertex 77.6 27.5 20
      vertex 77.6 27.5 2
    endloop
  endfacet
  facet normal -1 -0 0
    outer loop
      vertex 77.6 27.5 20
      vertex 77.6 3.1 2
      vertex 77.6 3.1 20
    endloop
  endfacet
  facet normal 0 -1 0
    outer loop
      vertex 75.1 27.5 2
      vertex 77.6 27.5 20
      vertex 75.1 27.5 20
    endloop
  endfacet
  facet normal 0 -1 -0
    outer loop
      vertex 77.6 27.5 20
      vertex 75.1 27.5 2
      vertex 77.6 27.5 2
    endloop
  endfacet
  facet normal -0 0 1
    outer loop
      vertex 75.1 27.5 2
      vertex 77.6 3.1 2
      vertex 77.6 27.5 2
    endloop
  endfacet
  facet normal 0 0 1
    outer loop
      vertex 77.6 3.1 2
      vertex 75.1 27.5 2
      vertex 75.1 3.1 2
    endloop
  endfacet
  facet normal 0 1 -0
    outer loop
      vertex 77.6 3.1 2
      vertex 75.1 3.1 20
      vertex 77.6 3.1 20
    endloop
  endfacet
  facet normal 0 1 0
    outer loop
      vertex 75.1 3.1 20
      vertex 77.6 3.1 2
      vertex 75.1 3.1 2
    endloop
  endfacet
  facet normal 1 -0 0
    outer loop
      vertex 79.6 3.1 20
      vertex 79.6 27.5 2
      vertex 79.6 27.5 20
    endloop
  endfacet
  facet normal 1 0 0
    outer loop
      vertex 79.6 27.5 2
      vertex 79.6 3.1 20
      vertex 79.6 3.1 2
    endloop
  endfacet
  facet normal -1 0 0
    outer loop
      vertex 82.1 3.1 2
      vertex 82.1 27.5 20
      vertex 82.1 27.5 2
    endloop
  endfacet
  facet normal -1 -0 0
    outer loop
      vertex 82.1 27.5 20
      vertex 82.1 3.1 2
      vertex 82.1 3.1 20
    endloop
  endfacet
  facet normal 0 -1 0
    outer loop
      vertex 79.6 27.5 2
      vertex 82.1 27.5 20
      vertex 79.6 27.5 20
    endloop
  endfacet
  facet normal 0 -1 -0
    outer loop
      vertex 82.1 27.5 20
      vertex 79.6 27.5 2
      vertex 82.1 27.5 2
    endloop
  endfacet
  facet normal -0 0 1
    outer loop
      vertex 79.6 27.5 2
      vertex 82.1 3.1 2
      vertex 82.1 27.5 2
    endloop
  endfacet
  facet normal 0 0 1
    outer loop
      vertex 82.1 3.1 2
      vertex 79.6 27.5 2
      vertex 79.6 3.1 2
    endloop
  endfacet
  facet normal 0 1 -0
    outer loop
      vertex 82.1 3.1 2
      vertex 79.6 3.1 20
      vertex 82.1 3.1 20
    endloop
  endfacet
  facet normal 0 1 0
    outer loop
      vertex 79.6 3.1 20
      vertex 82.1 3.1 2
      vertex 79.6 3.1 2
    endloop
  endfacet
  facet normal 1 -0 0
    outer loop
      vertex 84.1 3.1 20
      vertex 84.1 27.5 2
      vertex 84.1 27.5 20
    endloop
  endfacet
  facet normal 1 0 0
    outer loop
      vertex 84.1 27.5 2
      vertex 84.1 3.1 20
      vertex 84.1 3.1 2
    endloop
  endfacet
  facet normal -1 0 0
    outer loop
      vertex 86.6 3.1 2
      vertex 86.6 27.5 20
      vertex 86.6 27.5 2
    endloop
  endfacet
  facet normal -1 -0 0
    outer loop
      vertex 86.6 27.5 20
      vertex 86.6 3.1 2
      vertex 86.6 3.1 20
    endloop
  endfacet
  facet normal -0 0 1
    outer loop
      vertex 84.1 27.5 2
      vertex 86.6 3.1 2
      vertex 86.6 27.5 2
    endloop
  endfacet
  facet normal 0 0 1
    outer loop
      vertex 86.6 3.1 2
      vertex 84.1 27.5 2
      vertex 84.1 3.1 2
    endloop
  endfacet
  facet normal 0 1 -0
    outer loop
      vertex 86.6 3.1 2
      vertex 84.1 3.1 20
      vertex 86.6 3.1 20
    endloop
  endfacet
  facet normal 0 1 0
    outer loop
      vertex 84.1 3.1 20
      vertex 86.6 3.1 2
      vertex 84.1 3.1 2
    endloop
  endfacet
  facet normal 0 -1 0
    outer loop
      vertex 84.1 27.5 2
      vertex 86.6 27.5 20
      vertex 84.1 27.5 20
    endloop
  endfacet
  facet normal 0 -1 -0
    outer loop
      vertex 86.6 27.5 20
      vertex 84.1 27.5 2
      vertex 86.6 27.5 2
    endloop
  endfacet
  facet normal 1 -0 0
    outer loop
      vertex 88.6 3.1 20
      vertex 88.6 27.5 2
      vertex 88.6 27.5 20
    endloop
  endfacet
  facet normal 1 0 0
    outer loop
      vertex 88.6 27.5 2
      vertex 88.6 3.1 20
      vertex 88.6 3.1 2
    endloop
  endfacet
  facet normal -1 0 0
    outer loop
      vertex 91.1 3.1 2
      vertex 91.1 27.5 20
      vertex 91.1 27.5 2
    endloop
  endfacet
  facet normal -1 -0 0
    outer loop
      vertex 91.1 27.5 20
      vertex 91.1 3.1 2
      vertex 91.1 3.1 20
    endloop
  endfacet
  facet normal -0 0 1
    outer loop
      vertex 88.6 27.5 2
      vertex 91.1 3.1 2
      vertex 91.1 27.5 2
    endloop
  endfacet
  facet normal 0 0 1
    outer loop
      vertex 91.1 3.1 2
      vertex 88.6 27.5 2
      vertex 88.6 3.1 2
    endloop
  endfacet
  facet normal 0 1 -0
    outer loop
      vertex 91.1 3.1 2
      vertex 88.6 3.1 20
      vertex 91.1 3.1 20
    endloop
  endfacet
  facet normal 0 1 0
    outer loop
      vertex 88.6 3.1 20
      vertex 91.1 3.1 2
      vertex 88.6 3.1 2
    endloop
  endfacet
  facet normal 0 -1 0
    outer loop
      vertex 88.6 27.5 2
      vertex 91.1 27.5 20
      vertex 88.6 27.5 20
    endloop
  endfacet
  facet normal 0 -1 -0
    outer loop
      vertex 91.1 27.5 20
      vertex 88.6 27.5 2
      vertex 91.1 27.5 2
    endloop
  endfacet
  facet normal 1 -0 0
    outer loop
      vertex 93.1 3.1 20
      vertex 93.1 27.5 2
      vertex 93.1 27.5 20
    endloop
  endfacet
  facet normal 1 0 0
    outer loop
      vertex 93.1 27.5 2
      vertex 93.1 3.1 20
      vertex 93.1 3.1 2
    endloop
  endfacet
  facet normal -1 0 0
    outer loop
      vertex 95.6 3.1 2
      vertex 95.6 27.5 20
      vertex 95.6 27.5 2
    endloop
  endfacet
  facet normal -1 -0 0
    outer loop
      vertex 95.6 27.5 20
      vertex 95.6 3.1 2
      vertex 95.6 3.1 20
    endloop
  endfacet
  facet normal 0 -1 0
    outer loop
      vertex 93.1 27.5 2
      vertex 95.6 27.5 20
      vertex 93.1 27.5 20
    endloop
  endfacet
  facet normal 0 -1 -0
    outer loop
      vertex 95.6 27.5 20
      vertex 93.1 27.5 2
      vertex 95.6 27.5 2
    endloop
  endfacet
  facet normal -0 0 1
    outer loop
      vertex 93.1 27.5 2
      vertex 95.6 3.1 2
      vertex 95.6 27.5 2
    endloop
  endfacet
  facet normal 0 0 1
    outer loop
      vertex 95.6 3.1 2
      vertex 93.1 27.5 2
      vertex 93.1 3.1 2
    endloop
  endfacet
  facet normal 0 1 -0
    outer loop
      vertex 95.6 3.1 2
      vertex 93.1 3.1 20
      vertex 95.6 3.1 20
    endloop
  endfacet
  facet normal 0 1 0
    outer loop
      vertex 93.1 3.1 20
      vertex 95.6 3.1 2
      vertex 93.1 3.1 2
    endloop
  endfacet
  facet normal 1 -0 0
    outer loop
      vertex 97.6 3.1 20
      vertex 97.6 27.5 2
      vertex 97.6 27.5 20
    endloop
  endfacet
  facet normal 1 0 0
    outer loop
      vertex 97.6 27.5 2
      vertex 97.6 3.1 20
      vertex 97.6 3.1 2
    endloop
  endfacet
  facet normal -1 0 0
    outer loop
      vertex 100.1 3.1 2
      vertex 100.1 27.5 20
      vertex 100.1 27.5 2
    endloop
  endfacet
  facet normal -1 -0 0
    outer loop
      vertex 100.1 27.5 20
      vertex 100.1 3.1 2
      vertex 100.1 3.1 20
    endloop
  endfacet
  facet normal -0 0 1
    outer loop
      vertex 97.6 27.5 2
      vertex 100.1 3.1 2
      vertex 100.1 27.5 2
    endloop
  endfacet
  facet normal 0 0 1
    outer loop
      vertex 100.1 3.1 2
      vertex 97.6 27.5 2
      vertex 97.6 3.1 2
    endloop
  endfacet
  facet normal 0 1 -0
    outer loop
      vertex 100.1 3.1 2
      vertex 97.6 3.1 20
      vertex 100.1 3.1 20
    endloop
  endfacet
  facet normal 0 1 0
    outer loop
      vertex 97.6 3.1 20
      vertex 100.1 3.1 2
      vertex 97.6 3.1 2
    endloop
  endfacet
  facet normal 0 -1 0
    outer loop
      vertex 97.6 27.5 2
      vertex 100.1 27.5 20
      vertex 97.6 27.5 20
    endloop
  endfacet
  facet normal 0 -1 -0
    outer loop
      vertex 100.1 27.5 20
      vertex 97.6 27.5 2
      vertex 100.1 27.5 2
    endloop
  endfacet
  facet normal 1 -0 0
    outer loop
      vertex 102.1 3.1 20
      vertex 102.1 27.5 2
      vertex 102.1 27.5 20
    endloop
  endfacet
  facet normal 1 0 0
    outer loop
      vertex 102.1 27.5 2
      vertex 102.1 3.1 20
      vertex 102.1 3.1 2
    endloop
  endfacet
  facet normal -1 0 0
    outer loop
      vertex 104.6 3.1 2
      vertex 104.6 27.5 20
      vertex 104.6 27.5 2
    endloop
  endfacet
  facet normal -1 -0 0
    outer loop
      vertex 104.6 27.5 20
      vertex 104.6 3.1 2
      vertex 104.6 3.1 20
    endloop
  endfacet
  facet normal -0 0 1
    outer loop
      vertex 102.1 27.5 2
      vertex 104.6 3.1 2
      vertex 104.6 27.5 2
    endloop
  endfacet
  facet normal 0 0 1
    outer loop
      vertex 104.6 3.1 2
      vertex 102.1 27.5 2
      vertex 102.1 3.1 2
    endloop
  endfacet
  facet normal 0 1 -0
    outer loop
      vertex 104.6 3.1 2
      vertex 102.1 3.1 20
      vertex 104.6 3.1 20
    endloop
  endfacet
  facet normal 0 1 0
    outer loop
      vertex 102.1 3.1 20
      vertex 104.6 3.1 2
      vertex 102.1 3.1 2
    endloop
  endfacet
  facet normal 0 -1 0
    outer loop
      vertex 102.1 27.5 2
      vertex 104.6 27.5 20
      vertex 102.1 27.5 20
    endloop
  endfacet
  facet normal 0 -1 -0
    outer loop
      vertex 104.6 27.5 20
      vertex 102.1 27.5 2
      vertex 104.6 27.5 2
    endloop
  endfacet
  facet normal 1 -0 0
    outer loop
      vertex 106.6 3.1 20
      vertex 106.6 27.5 2
      vertex 106.6 27.5 20
    endloop
  endfacet
  facet normal 1 0 0
    outer loop
      vertex 106.6 27.5 2
      vertex 106.6 3.1 20
      vertex 106.6 3.1 2
    endloop
  endfacet
  facet normal -1 0 0
    outer loop
      vertex 109.1 3.1 2
      vertex 109.1 27.5 20
      vertex 109.1 27.5 2
    endloop
  endfacet
  facet normal -1 -0 0
    outer loop
      vertex 109.1 27.5 20
      vertex 109.1 3.1 2
      vertex 109.1 3.1 20
    endloop
  endfacet
  facet normal 0 -1 0
    outer loop
      vertex 106.6 27.5 2
      vertex 109.1 27.5 20
      vertex 106.6 27.5 20
    endloop
  endfacet
  facet normal 0 -1 -0
    outer loop
      vertex 109.1 27.5 20
      vertex 106.6 27.5 2
      vertex 109.1 27.5 2
    endloop
  endfacet
  facet normal -0 0 1
    outer loop
      vertex 106.6 27.5 2
      vertex 109.1 3.1 2
      vertex 109.1 27.5 2
    endloop
  endfacet
  facet normal 0 0 1
    outer loop
      vertex 109.1 3.1 2
      vertex 106.6 27.5 2
      vertex 106.6 3.1 2
    endloop
  endfacet
  facet normal 0 1 -0
    outer loop
      vertex 109.1 3.1 2
      vertex 106.6 3.1 20
      vertex 109.1 3.1 20
    endloop
  endfacet
  facet normal 0 1 0
    outer loop
      vertex 106.6 3.1 20
      vertex 109.1 3.1 2
      vertex 106.6 3.1 2
    endloop
  endfacet
  facet normal 1 -0 0
    outer loop
      vertex 111.1 3.1 20
      vertex 111.1 27.5 2
      vertex 111.1 27.5 20
    endloop
  endfacet
  facet normal 1 0 0
    outer loop
      vertex 111.1 27.5 2
      vertex 111.1 3.1 20
      vertex 111.1 3.1 2
    endloop
  endfacet
  facet normal -1 0 0
    outer loop
      vertex 113.6 3.1 2
      vertex 113.6 27.5 20
      vertex 113.6 27.5 2
    endloop
  endfacet
  facet normal -1 -0 0
    outer loop
      vertex 113.6 27.5 20
      vertex 113.6 3.1 2
      vertex 113.6 3.1 20
    endloop
  endfacet
  facet normal -0 0 1
    outer loop
      vertex 111.1 27.5 2
      vertex 113.6 3.1 2
      vertex 113.6 27.5 2
    endloop
  endfacet
  facet normal 0 0 1
    outer loop
      vertex 113.6 3.1 2
      vertex 111.1 27.5 2
      vertex 111.1 3.1 2
    endloop
  endfacet
  facet normal 0 1 -0
    outer loop
      vertex 113.6 3.1 2
      vertex 111.1 3.1 20
      vertex 113.6 3.1 20
    endloop
  endfacet
  facet normal 0 1 0
    outer loop
      vertex 111.1 3.1 20
      vertex 113.6 3.1 2
      vertex 111.1 3.1 2
    endloop
  endfacet
  facet normal 0 -1 0
    outer loop
      vertex 111.1 27.5 2
      vertex 113.6 27.5 20
      vertex 111.1 27.5 20
    endloop
  endfacet
  facet normal 0 -1 -0
    outer loop
      vertex 113.6 27.5 20
      vertex 111.1 27.5 2
      vertex 113.6 27.5 2
    endloop
  endfacet
  facet normal -1 0 0
    outer loop
      vertex 0 35.6 3.8147e-07
      vertex 0 66.2 21.4
      vertex 0 66.2 3.8147e-07
    endloop
  endfacet
  facet normal -1 -0 0
    outer loop
      vertex 0 66.2 21.4
      vertex 0 35.6 3.8147e-07
      vertex 0 35.6 21.4
    endloop
  endfacet
  facet normal 0 0 -1
    outer loop
      vertex 0 35.6 3.8147e-07
      vertex 116.7 66.2 3.8147e-07
      vertex 116.7 35.6 3.8147e-07
    endloop
  endfacet
  facet normal -0 0 -1
    outer loop
      vertex 116.7 66.2 3.8147e-07
      vertex 0 35.6 3.8147e-07
      vertex 0 66.2 3.8147e-07
    endloop
  endfacet
  facet normal 1 -0 0
    outer loop
      vertex 116.7 35.6 21.4
      vertex 116.7 66.2 3.8147e-07
      vertex 116.7 66.2 21.4
    endloop
  endfacet
  facet normal 1 0 0
    outer loop
      vertex 116.7 66.2 3.8147e-07
      vertex 116.7 35.6 21.4
      vertex 116.7 35.6 3.8147e-07
    endloop
  endfacet
  facet normal 0 0 1
    outer loop
      vertex 116.7 66.2 21.4
      vertex 115.8 65.3 21.4
      vertex 116.7 35.6 21.4
    endloop
  endfacet
  facet normal 0 0 1
    outer loop
      vertex 116.7 66.2 21.4
      vertex 0.9 65.3 21.4
      vertex 115.8 65.3 21.4
    endloop
  endfacet
  facet normal 0 0 1
    outer loop
      vertex 0.9 65.3 21.4
      vertex 0 66.2 21.4
      vertex 0.9 36.5 21.4
    endloop
  endfacet
  facet normal -0 0 1
    outer loop
      vertex 0 66.2 21.4
      vertex 0.9 65.3 21.4
      vertex 116.7 66.2 21.4
    endloop
  endfacet
  facet normal -0 0 1
    outer loop
      vertex 115.8 36.5 21.4
      vertex 116.7 35.6 21.4
      vertex 115.8 65.3 21.4
    endloop
  endfacet
  facet normal -0 0 1
    outer loop
      vertex 0.9 36.5 21.4
      vertex 116.7 35.6 21.4
      vertex 115.8 36.5 21.4
    endloop
  endfacet
  facet normal 0 0 1
    outer loop
      vertex 0.9 36.5 21.4
      vertex 0 35.6 21.4
      vertex 116.7 35.6 21.4
    endloop
  endfacet
  facet normal 0 0 1
    outer loop
      vertex 0 35.6 21.4
      vertex 0.9 36.5 21.4
      vertex 0 66.2 21.4
    endloop
  endfacet
  facet normal 0 1 -0
    outer loop
      vertex 116.7 66.2 3.8147e-07
      vertex 0 66.2 21.4
      vertex 116.7 66.2 21.4
    endloop
  endfacet
  facet normal 0 1 0
    outer loop
      vertex 0 66.2 21.4
      vertex 116.7 66.2 3.8147e-07
      vertex 0 66.2 3.8147e-07
    endloop
  endfacet
  facet normal 0 -1 0
    outer loop
      vertex 0 35.6 3.8147e-07
      vertex 116.7 35.6 21.4
      vertex 0 35.6 21.4
    endloop
  endfacet
  facet normal 0 -1 -0
    outer loop
      vertex 116.7 35.6 21.4
      vertex 0 35.6 3.8147e-07
      vertex 116.7 35.6 3.8147e-07
    endloop
  endfacet
  facet normal 1 -0 0
    outer loop
      vertex 0.9 36.5 21.4
      vertex 0.9 65.3 16.2
      vertex 0.9 65.3 21.4
    endloop
  endfacet
  facet normal 1 0 0
    outer loop
      vertex 0.9 65.3 16.2
      vertex 0.9 36.5 21.4
      vertex 0.9 36.5 16.2
    endloop
  endfacet
  facet normal 0 0 1
    outer loop
      vertex 115.8 65.3 16.2
      vertex 113.8 63.3 16.2
      vertex 115.8 36.5 16.2
    endloop
  endfacet
  facet normal 0 0 1
    outer loop
      vertex 115.8 65.3 16.2
      vertex 2.9 63.3 16.2
      vertex 113.8 63.3 16.2
    endloop
  endfacet
  facet normal 0 0 1
    outer loop
      vertex 2.9 63.3 16.2
      vertex 0.9 65.3 16.2
      vertex 2.9 38.5 16.2
    endloop
  endfacet
  facet normal -0 0 1
    outer loop
      vertex 0.9 65.3 16.2
      vertex 2.9 63.3 16.2
      vertex 115.8 65.3 16.2
    endloop
  endfacet
  facet normal -0 0 1
    outer loop
      vertex 113.8 38.5 16.2
      vertex 115.8 36.5 16.2
      vertex 113.8 63.3 16.2
    endloop
  endfacet
  facet normal -0 0 1
    outer loop
      vertex 2.9 38.5 16.2
      vertex 115.8 36.5 16.2
      vertex 113.8 38.5 16.2
    endloop
  endfacet
  facet normal 0 0 1
    outer loop
      vertex 2.9 38.5 16.2
      vertex 0.9 36.5 16.2
      vertex 115.8 36.5 16.2
    endloop
  endfacet
  facet normal 0 0 1
    outer loop
      vertex 0.9 36.5 16.2
      vertex 2.9 38.5 16.2
      vertex 0.9 65.3 16.2
    endloop
  endfacet
  facet normal -1 0 0
    outer loop
      vertex 115.8 36.5 16.2
      vertex 115.8 65.3 21.4
      vertex 115.8 65.3 16.2
    endloop
  endfacet
  facet normal -1 -0 0
    outer loop
      vertex 115.8 65.3 21.4
      vertex 115.8 36.5 16.2
      vertex 115.8 36.5 21.4
    endloop
  endfacet
  facet normal 0 -1 0
    outer loop
      vertex 0.9 65.3 16.2
      vertex 115.8 65.3 21.4
      vertex 0.9 65.3 21.4
    endloop
  endfacet
  facet normal 0 -1 -0
    outer loop
      vertex 115.8 65.3 21.4
      vertex 0.9 65.3 16.2
      vertex 115.8 65.3 16.2
    endloop
  endfacet
  facet normal 0 1 -0
    outer loop
      vertex 115.8 36.5 16.2
      vertex 0.9 36.5 21.4
      vertex 115.8 36.5 21.4
    endloop
  endfacet
  facet normal 0 1 0
    outer loop
      vertex 0.9 36.5 21.4
      vertex 115.8 36.5 16.2
      vertex 0.9 36.5 16.2
    endloop
  endfacet
  facet normal 1 -0 0
    outer loop
      vertex 2.9 38.5 16.2
      vertex 2.9 63.3 2
      vertex 2.9 63.3 16.2
    endloop
  endfacet
  facet normal 1 0 0
    outer loop
      vertex 2.9 63.3 2
      vertex 2.9 38.5 16.2
      vertex 2.9 38.5 2
    endloop
  endfacet
  facet normal -0 0 1
    outer loop
      vertex 2.9 63.3 2
      vertex 113.8 38.5 2
      vertex 113.8 63.3 2
    endloop
  endfacet
  facet normal 0 0 1
    outer loop
      vertex 113.8 38.5 2
      vertex 2.9 63.3 2
      vertex 2.9 38.5 2
    endloop
  endfacet
  facet normal -1 0 0
    outer loop
      vertex 113.8 38.5 2
      vertex 113.8 63.3 16.2
      vertex 113.8 63.3 2
    endloop
  endfacet
  facet normal -1 -0 0
    outer loop
      vertex 113.8 63.3 16.2
      vertex 113.8 38.5 2
      vertex 113.8 38.5 16.2
    endloop
  endfacet
  facet normal 0 1 -0
    outer loop
      vertex 113.8 38.5 2
      vertex 2.9 38.5 16.2
      vertex 113.8 38.5 16.2
    endloop
  endfacet
  facet normal 0 1 0
    outer loop
      vertex 2.9 38.5 16.2
      vertex 113.8 38.5 2
      vertex 2.9 38.5 2
    endloop
  endfacet
  facet normal 0 -1 0
    outer loop
      vertex 2.9 63.3 2
      vertex 113.8 63.3 16.2
      vertex 2.9 63.3 16.2
    endloop
  endfacet
  facet normal 0 -1 -0
    outer loop
      vertex 113.8 63.3 16.2
      vertex 2.9 63.3 2
      vertex 113.8 63.3 2
    endloop
  endfacet
endsolid OpenSCAD_Model
